<svg width="20" height="20" viewBox="0 0 20 20" fill="none" xmlns="http://www.w3.org/2000/svg">
<path opacity="0.5" d="M14 0H6C2.68629 0 0 2.68629 0 6V14C0 17.3137 2.68629 20 6 20H14C17.3137 20 20 17.3137 20 14V6C20 2.68629 17.3137 0 14 0Z" fill="white"/>
<path d="M13.7001 11.71L10.7001 14.71C10.5138 14.8947 10.2624 14.9989 10.0001 15C9.86845 15.0008 9.73799 14.9755 9.61615 14.9258C9.49432 14.876 9.3835 14.8027 9.29006 14.71L6.29006 11.71C6.19633 11.617 6.12194 11.5064 6.07117 11.3846C6.0204 11.2627 5.99426 11.132 5.99426 11C5.99426 10.868 6.0204 10.7373 6.07117 10.6154C6.12194 10.4936 6.19633 10.383 6.29006 10.29C6.47742 10.1037 6.73087 9.99921 6.99506 9.99921C7.25925 9.99921 7.5127 10.1037 7.70006 10.29L9.00006 11.59V6C9.00006 5.73478 9.10542 5.48043 9.29295 5.29289C9.48049 5.10536 9.73484 5 10.0001 5C10.2653 5 10.5196 5.10536 10.7072 5.29289C10.8947 5.48043 11.0001 5.73478 11.0001 6V11.59L12.2901 10.29C12.4774 10.1037 12.7309 9.99921 12.9951 9.99921C13.2592 9.99921 13.5127 10.1037 13.7001 10.29C13.7938 10.383 13.8682 10.4936 13.919 10.6154C13.9697 10.7373 13.9959 10.868 13.9959 11C13.9959 11.132 13.9697 11.2627 13.919 11.3846C13.8682 11.5064 13.7938 11.617 13.7001 11.71Z" fill="white"/>
</svg>
