<svg width="47" height="48" viewBox="0 0 47 48" fill="none" xmlns="http://www.w3.org/2000/svg">
<path opacity="0.5" d="M46.8926 19.4092V33.4058C46.8926 37.1179 45.418 40.678 42.7931 43.3029C40.1682 45.9277 36.6081 47.4024 32.896 47.4024H14.2339C10.5218 47.4024 6.96169 45.9277 4.33682 43.3029C1.71195 40.678 0.237305 37.1179 0.237305 33.4058V19.4092C0.240654 16.1039 1.4136 12.9065 3.5484 10.3832C5.68321 7.85986 8.64212 6.17342 11.9011 5.62255V7.74536C11.9011 8.36405 12.1469 8.9574 12.5844 9.39488C13.0219 9.83236 13.6152 10.0781 14.2339 10.0781C14.8526 10.0781 15.4459 9.83236 15.8834 9.39488C16.3209 8.9574 16.5667 8.36405 16.5667 7.74536V5.4126H30.5633V7.74536C30.5633 8.36405 30.809 8.9574 31.2465 9.39488C31.684 9.83236 32.2773 10.0781 32.896 10.0781C33.5147 10.0781 34.1081 9.83236 34.5455 9.39488C34.983 8.9574 35.2288 8.36405 35.2288 7.74536V5.62255C38.4878 6.17342 41.4467 7.85986 43.5815 10.3832C45.7163 12.9065 46.8893 16.1039 46.8926 19.4092Z" fill="white"/>
<path fill-rule="evenodd" clip-rule="evenodd" d="M11.9019 24.0747C11.9019 22.7864 12.9463 21.7419 14.2346 21.7419H32.8967C34.1851 21.7419 35.2295 22.7864 35.2295 24.0747C35.2295 25.3631 34.1851 26.4075 32.8967 26.4075H14.2346C12.9463 26.4075 11.9019 25.3631 11.9019 24.0747Z" fill="white"/>
<path fill-rule="evenodd" clip-rule="evenodd" d="M11.9019 33.4058C11.9019 32.1174 12.9463 31.073 14.2346 31.073H25.8984C27.1868 31.073 28.2312 32.1174 28.2312 33.4058C28.2312 34.6941 27.1868 35.7385 25.8984 35.7385H14.2346C12.9463 35.7385 11.9019 34.6941 11.9019 33.4058Z" fill="white"/>
<path d="M35.228 3.07984V5.62255C34.4585 5.4812 33.6776 5.41092 32.8953 5.4126H30.5625V3.07984C30.5625 2.46115 30.8083 1.8678 31.2457 1.43032C31.6832 0.992843 32.2766 0.74707 32.8953 0.74707C33.514 0.74707 34.1073 0.992843 34.5448 1.43032C34.9823 1.8678 35.228 2.46115 35.228 3.07984Z" fill="white"/>
<path d="M16.5674 3.07984V5.4126H14.2346C13.4522 5.41092 12.6714 5.4812 11.9019 5.62255V3.07984C11.9019 2.46115 12.1476 1.8678 12.5851 1.43032C13.0226 0.992843 13.6159 0.74707 14.2346 0.74707C14.8533 0.74707 15.4467 0.992843 15.8841 1.43032C16.3216 1.8678 16.5674 2.46115 16.5674 3.07984Z" fill="white"/>
</svg>
