<svg width="18" height="18" viewBox="0 0 18 18" fill="none" xmlns="http://www.w3.org/2000/svg">
<path d="M8.21941 17.9904C7.26643 18.0039 6.32017 17.8307 5.43525 17.4808C4.55034 17.1309 3.74429 16.6113 3.06362 15.9519C2.39328 15.2893 1.86153 14.5027 1.49874 13.637C1.13595 12.7713 0.949219 11.8435 0.949219 10.9064C0.949219 9.96941 1.13595 9.04155 1.49874 8.17585C1.86153 7.31016 2.39328 6.52357 3.06362 5.86102L7.43573 1.53929C7.53159 1.44376 7.64564 1.36793 7.77129 1.31619C7.89695 1.26444 8.03173 1.23779 8.16785 1.23779C8.30398 1.23779 8.43875 1.26444 8.56441 1.31619C8.69006 1.36793 8.80411 1.44376 8.89997 1.53929C9.09203 1.73027 9.19983 1.98861 9.19983 2.25789C9.19983 2.52716 9.09203 2.7855 8.89997 2.97648L4.51755 7.3084C3.55098 8.26411 3.008 9.56016 3.008 10.9115C3.008 12.2629 3.55098 13.559 4.51755 14.5147C4.99648 14.9893 5.56542 15.3658 6.1918 15.6228C6.81818 15.8797 7.48969 16.0119 8.16785 16.0119C8.84602 16.0119 9.51752 15.8797 10.1439 15.6228C10.7703 15.3658 11.3392 14.9893 11.8182 14.5147L16.1903 10.1828C16.3835 9.99291 16.6448 9.88636 16.9172 9.88636C17.1897 9.88636 17.451 9.99291 17.6442 10.1828C17.7409 10.2775 17.8176 10.3902 17.8699 10.5145C17.9223 10.6387 17.9492 10.7719 17.9492 10.9064C17.9492 11.041 17.9223 11.1742 17.8699 11.2984C17.8176 11.4226 17.7409 11.5354 17.6442 11.6301L13.2721 15.9519C11.9226 17.2588 10.1086 17.9907 8.21941 17.9904Z" fill="#FA7651"/>
<path opacity="0.5" d="M8.21848 13.9134C7.39831 13.9127 6.612 13.5901 6.03242 13.0165C5.45211 12.4436 5.12572 11.6663 5.125 10.8556C5.12572 10.0449 5.45211 9.26765 6.03242 8.69474L10.4045 4.37301C10.5004 4.27747 10.6144 4.20165 10.7401 4.1499C10.8657 4.09816 11.0005 4.07151 11.1367 4.07151C11.2728 4.07151 11.4076 4.09816 11.5332 4.1499C11.6589 4.20165 11.7729 4.27747 11.8688 4.37301C12.0608 4.56398 12.1686 4.82232 12.1686 5.0916C12.1686 5.36088 12.0608 5.61922 11.8688 5.81019L7.48635 10.1319C7.39079 10.2272 7.31517 10.3401 7.26386 10.4643C7.21254 10.5885 7.18653 10.7215 7.18732 10.8556C7.18653 10.9897 7.21254 11.1227 7.26386 11.2469C7.31517 11.3711 7.39079 11.484 7.48635 11.5793C7.58221 11.6748 7.69625 11.7507 7.82191 11.8024C7.94757 11.8541 8.08235 11.8808 8.21848 11.8808C8.3546 11.8808 8.48938 11.8541 8.61503 11.8024C8.74069 11.7507 8.85474 11.6748 8.9506 11.5793L13.3227 7.25756C13.6111 6.97348 13.8399 6.63592 13.9961 6.26424C14.1522 5.89255 14.2326 5.49405 14.2326 5.0916C14.2326 4.68915 14.1522 4.29065 13.9961 3.91897C13.8399 3.54728 13.6111 3.20972 13.3227 2.92564C12.7427 2.35301 11.9564 2.03137 11.1367 2.03137C10.3169 2.03137 9.53063 2.35301 8.9506 2.92564C8.85474 3.02118 8.74069 3.09701 8.61503 3.14876C8.48938 3.2005 8.3546 3.22714 8.21848 3.22714C8.08235 3.22714 7.94757 3.2005 7.82191 3.14876C7.69625 3.09701 7.58221 3.02118 7.48635 2.92564C7.2943 2.73467 7.1865 2.47633 7.1865 2.20705C7.1865 1.93777 7.2943 1.67944 7.48635 1.48847C7.96528 1.01386 8.53422 0.637307 9.1606 0.380384C9.78698 0.12346 10.4585 -0.00878906 11.1367 -0.00878906C11.8148 -0.00878906 12.4863 0.12346 13.1127 0.380384C13.7391 0.637307 14.308 1.01386 14.787 1.48847C15.7535 2.44418 16.2965 3.74022 16.2965 5.0916C16.2965 6.44298 15.7535 7.73903 14.787 8.69474L10.4045 13.0165C9.82495 13.5901 9.03864 13.9127 8.21848 13.9134Z" fill="#FA7651"/>
</svg>
