<svg width="40" height="50" viewBox="0 0 40 50" fill="none" xmlns="http://www.w3.org/2000/svg">
<path opacity="0.5" d="M29.9844 5.40642L10.5609 5.40322C5.19722 5.40233 0.848403 9.74971 0.847517 15.1134L0.843506 39.3927C0.84262 44.7564 5.19 49.1052 10.5536 49.1061L29.9771 49.1093C35.3408 49.1102 39.6896 44.7628 39.6905 39.3991L39.6945 15.1198C39.6954 9.75612 35.348 5.40731 29.9844 5.40642Z" fill="white"/>
<path d="M25.1235 39.3969L12.9838 39.3948C12.3398 39.3947 11.7223 39.1388 11.2671 38.6834C10.8118 38.228 10.5561 37.6104 10.5562 36.9665C10.5563 36.3226 10.8122 35.7051 11.2676 35.2498C11.7231 34.7946 12.3406 34.5389 12.9846 34.539L25.1243 34.541C25.7682 34.5411 26.3857 34.797 26.841 35.2524C27.2962 35.7078 27.5519 36.3254 27.5518 36.9693C27.5517 37.6132 27.2958 38.2308 26.8404 38.686C26.385 39.1413 25.7674 39.397 25.1235 39.3969Z" fill="white"/>
<path d="M27.5529 28.4715L12.9852 28.4691C12.3413 28.469 11.7238 28.2131 11.2685 27.7577C10.8133 27.3023 10.5576 26.6847 10.5577 26.0407C10.5578 25.3968 10.8137 24.7793 11.2691 24.324C11.7245 23.8688 12.3421 23.6131 12.986 23.6132L27.5537 23.6156C28.1976 23.6157 28.8151 23.8716 29.2704 24.327C29.7256 24.7824 29.9813 25.4 29.9812 26.0439C29.9811 26.6879 29.7252 27.3054 29.2698 27.7606C28.8144 28.2159 28.1968 28.4716 27.5529 28.4715Z" fill="white"/>
<path d="M25.1301 0.695522L15.4184 0.693917C12.7365 0.693474 10.5621 2.86716 10.5617 5.54899C10.5613 8.23081 12.7349 10.4052 15.4168 10.4057L25.1285 10.4073C27.8103 10.4077 29.9847 8.23402 29.9852 5.5522C29.9856 2.87037 27.8119 0.695965 25.1301 0.695522Z" fill="white"/>
</svg>
