<svg width="16" height="16" viewBox="0 0 16 16" fill="none" xmlns="http://www.w3.org/2000/svg">
<path fill-rule="evenodd" clip-rule="evenodd" d="M15.7071 15.7071C15.3166 16.0976 14.6834 16.0976 14.2929 15.7071L8 9.41421L1.70711 15.7071C1.31658 16.0976 0.683417 16.0976 0.292893 15.7071C-0.0976314 15.3166 -0.0976313 14.6834 0.292894 14.2929L7.29289 7.29289C7.68342 6.90237 8.31658 6.90237 8.70711 7.29289L15.7071 14.2929C16.0976 14.6834 16.0976 15.3166 15.7071 15.7071Z" fill="white"/>
<path fill-rule="evenodd" clip-rule="evenodd" d="M0.292893 0.292893C0.683417 -0.0976312 1.31658 -0.0976313 1.70711 0.292893L8 6.58579L14.2929 0.292891C14.6834 -0.0976337 15.3166 -0.0976338 15.7071 0.29289C16.0976 0.683415 16.0976 1.31658 15.7071 1.7071L8.70711 8.70711C8.31658 9.09763 7.68342 9.09763 7.29289 8.70711L0.292894 1.70711C-0.0976309 1.31658 -0.097631 0.683418 0.292893 0.292893Z" fill="white"/>
</svg>
