<svg width="184" height="60" viewBox="0 0 184 60" fill="none" xmlns="http://www.w3.org/2000/svg">
<g clip-path="url(#clip0_2449_3089)">
<path d="M23.8118 29.5072C21.3847 32.7273 17.4488 34.0417 12.857 34.0417C5.44456 34.0417 0 29.7043 0 22.804C0 15.9037 5.70695 11.6977 13.1194 11.6977C17.1865 11.6977 19.6135 12.2892 22.8278 13.3407V12.4864C22.5654 8.54331 20.1383 5.78318 15.0217 5.78318C11.8731 5.78318 8.85562 6.37463 6.03494 7.7547C5.77255 7.88613 5.51016 7.95185 5.24777 7.95185C4.5918 7.95185 4.06702 7.49183 3.73904 6.70322L3.08307 5.06028C2.88627 4.66598 2.82068 4.33739 2.82068 4.00881C2.82068 3.35163 3.14866 2.89161 3.87023 2.43159C7.15009 0.525783 11.2827 -0.0656738 15.0217 -0.0656738C24.7957 -0.0656738 30.5683 5.52031 30.5683 13.275V31.1501C30.5683 32.5959 29.9123 33.2531 28.4692 33.2531H25.7141C24.4021 33.2531 23.6806 32.5959 23.6806 31.2158V29.4414L23.8118 29.5072ZM22.8278 18.4009C20.1383 17.4152 18.1704 17.0866 15.2185 17.0866C11.2171 17.0866 7.80606 19.2552 7.80606 22.804C7.80606 26.3527 11.0203 28.4557 14.7594 28.4557C19.4168 28.4557 22.8278 25.8927 22.8278 21.8839V18.4009Z" fill="white"/>
<path d="M59.169 28.127C57.2011 31.8072 53.5276 34.0416 48.2799 34.0416C40.4738 34.0416 35.8164 28.587 35.8164 20.2409V2.89153C35.8164 1.44575 36.4724 0.788574 37.9155 0.788574H41.9169C43.3601 0.788574 44.016 1.44575 44.016 2.89153V18.9923C44.016 23.9211 46.4431 27.0098 50.8382 27.0098C55.8235 27.0098 58.2506 23.724 58.2506 18.9923V2.89153C58.2506 1.44575 58.9066 0.788574 60.3497 0.788574H64.3512C65.7943 0.788574 66.4503 1.44575 66.4503 2.89153V31.2157C66.4503 32.6615 65.7943 33.3187 64.3512 33.3187H61.3337C59.8906 33.3187 59.2346 32.6615 59.2346 31.2157V28.1927L59.169 28.127Z" fill="white"/>
<path d="M89.0819 7.49173C89.0819 7.49173 89.8691 6.83456 90.2627 6.17738C90.3283 6.04595 90.4595 5.91452 90.5251 5.71736C90.5251 5.65165 90.6563 5.52021 90.6563 5.45449C91.3122 4.40301 92.0994 3.48297 92.9522 2.56293C92.9522 2.56293 93.0178 2.49721 93.0834 2.43149C94.2641 1.3143 94.0017 0.919992 93.0834 0.591404C92.3618 0.328535 91.2466 0.262817 90.3283 0.262817C84.9493 0.262817 81.3415 2.43149 79.5047 5.8488V2.8258C79.5047 1.38001 78.8488 0.722839 77.4056 0.722839H74.3882C72.945 0.722839 72.2891 1.38001 72.2891 2.8258V31.15C72.2891 32.5958 72.945 33.253 74.3882 33.253H78.3896C79.8327 33.253 80.4887 32.5958 80.4887 31.15V15.0492C80.4887 10.5805 82.6534 7.3603 87.9012 7.3603C88.426 7.3603 88.6883 7.3603 88.9507 7.42602" fill="white"/>
<path d="M127.324 17.0208C127.324 26.9441 119.715 34.0416 109.416 34.0416C99.1171 34.0416 91.5078 26.9441 91.5078 17.0208C91.5078 7.09748 99.1171 0 109.416 0C119.715 0 127.324 7.09748 127.324 17.0208ZM119.255 17.0208C119.255 11.172 115.123 6.90033 109.416 6.90033C103.709 6.90033 99.5763 11.172 99.5763 17.0208C99.5763 22.8697 103.709 27.1413 109.416 27.1413C115.123 27.1413 119.255 22.8697 119.255 17.0208Z" fill="white"/>
<path d="M138.802 5.91459C140.638 2.49729 144.246 0.328613 149.625 0.328613C150.544 0.328613 151.659 0.328613 152.38 0.6572C153.167 0.985787 153.495 1.51153 153.495 2.1687C153.495 2.49729 153.495 2.82588 153.233 3.22018L151.987 6.37462C151.462 7.55753 151.265 7.68896 150.281 7.68896C149.428 7.68896 148.051 7.42609 147.198 7.42609C141.95 7.42609 139.786 10.5805 139.786 15.115V31.2158C139.786 32.6616 139.13 33.3188 137.686 33.3188H133.685C132.242 33.3188 131.586 32.6616 131.586 31.2158V2.89159C131.586 1.44581 132.242 0.788635 133.685 0.788635H136.703C138.146 0.788635 138.802 1.44581 138.802 2.89159V5.91459Z" fill="white"/>
<path d="M177.113 29.5072C174.685 32.7273 170.75 34.0417 166.158 34.0417C158.745 34.0417 153.301 29.7043 153.301 22.804C153.301 15.9037 159.008 11.6977 166.42 11.6977C170.487 11.6977 172.914 12.2892 176.129 13.3407V12.4864C175.866 8.54331 173.439 5.78318 168.323 5.78318C165.174 5.78318 162.156 6.37463 159.336 7.7547C159.073 7.88613 158.811 7.95185 158.549 7.95185C157.893 7.95185 157.368 7.49183 157.04 6.70322L156.384 5.06028C156.187 4.66598 156.121 4.33739 156.121 4.00881C156.121 3.35163 156.449 2.89161 157.171 2.43159C160.451 0.525783 164.583 -0.0656738 168.323 -0.0656738C178.096 -0.0656738 183.869 5.52031 183.869 13.275V31.1501C183.869 32.5959 183.213 33.2531 181.77 33.2531H179.015C177.703 33.2531 176.981 32.5959 176.981 31.2158V29.4414L177.113 29.5072ZM176.129 18.4009C173.439 17.4152 171.471 17.0866 168.519 17.0866C164.518 17.0866 161.107 19.2552 161.107 22.804C161.107 26.3527 164.321 28.4557 168.06 28.4557C172.718 28.4557 176.129 25.8927 176.129 21.8839V18.4009Z" fill="white"/>
<path d="M111.055 60.0001C109.612 60.0001 108.234 59.7372 107.053 59.2115C105.873 58.6857 104.823 57.9628 104.102 56.9771L106.397 54.6112C106.857 55.3341 107.513 55.8599 108.234 56.3199C109.021 56.7799 109.94 56.9771 110.989 56.9771C111.776 56.9771 112.367 56.8456 112.826 56.6485C113.285 56.4513 113.482 56.057 113.482 55.597C113.482 55.2684 113.351 55.0055 113.154 54.8084C112.957 54.6112 112.498 54.4141 111.842 54.2826L109.284 53.7569C107.578 53.4283 106.397 52.9026 105.676 52.1797C104.954 51.4568 104.626 50.5367 104.626 49.4196C104.626 48.6309 104.889 47.8423 105.348 47.1852C105.807 46.4623 106.529 45.9365 107.513 45.4765C108.431 45.0165 109.677 44.8193 111.055 44.8193C112.432 44.8193 113.744 45.0165 114.859 45.4765C115.909 45.9365 116.762 46.5937 117.418 47.5137L115.056 49.8796C114.597 49.2224 114.072 48.6967 113.351 48.3024C112.629 47.9738 111.908 47.7766 111.186 47.7766C110.661 47.7766 110.202 47.7766 109.809 47.9738C109.415 48.1052 109.153 48.2366 108.956 48.4338C108.759 48.6309 108.693 48.8938 108.693 49.2224C108.693 49.551 108.825 49.8139 109.087 50.011C109.349 50.2082 109.874 50.4053 110.596 50.6025L113.548 51.1939C114.991 51.4568 116.04 51.9825 116.631 52.6397C117.221 53.3626 117.549 54.1512 117.549 55.137C117.549 56.1227 117.287 56.9113 116.827 57.6342C116.303 58.3571 115.581 58.9486 114.663 59.3429C113.679 59.7372 112.498 60.0001 111.12 60.0001" fill="#FCFF73"/>
<path d="M128.571 50.4052C128.571 49.5509 128.309 48.8937 127.85 48.4337C127.39 47.9737 126.734 47.7108 125.947 47.7108C125.226 47.7108 124.57 47.908 124.045 48.2366C123.52 48.6309 123.127 49.2223 122.864 50.0767L119.453 49.0252C119.781 47.7108 120.503 46.7251 121.618 45.9365C122.733 45.1478 124.242 44.7535 126.144 44.7535C127.456 44.7535 128.571 44.9507 129.489 45.345C130.408 45.7393 131.195 46.3308 131.72 47.1194C132.245 47.908 132.507 48.8937 132.507 50.1424V56.0569C132.507 56.7798 132.835 57.1741 133.557 57.1741C133.885 57.1741 134.212 57.1741 134.475 57.0427L134.212 59.54C133.688 59.8028 133.097 59.9343 132.31 59.9343C131.654 59.9343 130.998 59.8028 130.473 59.6057C129.949 59.3428 129.489 59.0142 129.162 58.5542C128.834 58.0942 128.702 57.5027 128.702 56.7798V56.6484L129.424 56.517C129.293 57.2399 128.965 57.897 128.44 58.4228C127.915 58.9485 127.259 59.3428 126.538 59.6057C125.816 59.8685 125.029 60 124.242 60C123.258 60 122.405 59.8685 121.683 59.54C120.962 59.2114 120.437 58.8171 120.044 58.2256C119.65 57.6342 119.453 56.9113 119.453 56.0569C119.453 54.9397 119.781 54.0854 120.503 53.3625C121.224 52.7053 122.208 52.1796 123.52 51.9167L128.965 50.7995V53.2968L125.422 54.0197C124.767 54.1511 124.242 54.3483 123.914 54.5454C123.586 54.7426 123.389 55.1369 123.389 55.6626C123.389 56.1884 123.586 56.517 123.914 56.7798C124.242 57.0427 124.701 57.1741 125.226 57.1741C125.619 57.1741 126.013 57.1741 126.406 57.0427C126.8 56.977 127.128 56.7798 127.456 56.5827C127.784 56.3855 127.981 56.0569 128.178 55.7283C128.374 55.334 128.44 54.9397 128.44 54.414V50.471L128.571 50.4052Z" fill="#FCFF73"/>
<path d="M141.035 60C140.051 60 139.198 59.8028 138.411 59.4742C137.624 59.1457 137.033 58.5542 136.574 57.7656C136.115 56.977 135.918 55.9912 135.918 54.7426V45.0821H139.919V53.8225C139.919 54.9397 140.182 55.7283 140.641 56.1884C141.1 56.6484 141.756 56.8455 142.674 56.8455C143.068 56.8455 143.462 56.7798 143.855 56.6484C144.249 56.517 144.577 56.2541 144.905 55.9912C145.233 55.6626 145.43 55.2683 145.626 54.8083C145.823 54.2826 145.889 53.7568 145.889 53.0339V45.2136H149.89V59.8028H146.348L146.217 57.2398C145.758 58.2256 145.036 58.9485 144.249 59.4085C143.396 59.8685 142.412 60.0657 141.231 60.0657M143.068 38.3132H146.938L144.052 43.242H141.1L143.134 38.3132H143.068Z" fill="#FCFF73"/>
<path d="M158.615 60C157.434 60 156.319 59.6714 155.4 59.08C154.482 58.4885 153.695 57.6342 153.17 56.4513C152.645 55.3341 152.383 53.954 152.383 52.3768C152.383 50.7996 152.645 49.3538 153.236 48.2366C153.826 47.1194 154.548 46.2651 155.531 45.6079C156.515 45.0164 157.565 44.6878 158.746 44.6878C160.058 44.6878 161.107 45.0822 161.894 45.805C162.747 46.5279 163.272 47.5137 163.534 48.6966L163.141 49.1566V38.6418H167.142V59.6057H163.534L163.272 55.2026L163.731 55.4655C163.6 56.3855 163.338 57.1742 162.813 57.8313C162.354 58.4885 161.698 59.0142 160.976 59.4085C160.254 59.8029 159.402 59.9343 158.549 59.9343M159.73 56.8456C160.451 56.8456 161.042 56.6484 161.566 56.3198C162.091 55.9912 162.485 55.3998 162.747 54.7426C163.01 54.0197 163.141 53.2311 163.141 52.2453C163.141 51.2596 163.01 50.5367 162.747 49.8795C162.485 49.2224 162.091 48.6966 161.566 48.368C161.042 48.0394 160.451 47.8423 159.795 47.8423C158.68 47.8423 157.827 48.2366 157.237 49.0252C156.647 49.8138 156.319 50.931 156.319 52.3768C156.319 53.8226 156.647 55.0055 157.237 55.7284C157.827 56.517 158.68 56.9113 159.73 56.9113" fill="#FCFF73"/>
<path d="M177.309 60.0001C175.801 60.0001 174.423 59.6715 173.308 59.08C172.193 58.4886 171.274 57.6342 170.684 56.4513C170.094 55.3341 169.766 53.9541 169.766 52.3768C169.766 50.7996 170.094 49.4196 170.684 48.3024C171.274 47.1852 172.193 46.3308 173.308 45.7394C174.423 45.1479 175.669 44.8193 177.113 44.8193C178.556 44.8193 179.868 45.1479 180.852 45.7394C181.901 46.3308 182.688 47.1194 183.213 48.1709C183.738 49.2224 184 50.3396 184 51.6539C184 52.0483 184 52.4426 184 52.7711C184 53.0997 184 53.4283 183.935 53.6912H172.324V50.9311H182.163L180.261 51.6539C180.261 50.4053 179.999 49.4853 179.408 48.8281C178.884 48.1709 178.096 47.8423 177.047 47.8423C176.325 47.8423 175.669 48.0395 175.145 48.3681C174.62 48.6967 174.226 49.2224 173.964 49.9453C173.701 50.6682 173.57 51.5225 173.57 52.574C173.57 53.6255 173.701 54.4798 174.029 55.137C174.357 55.7941 174.751 56.3199 175.341 56.6485C175.866 56.9771 176.588 57.1742 177.309 57.1742C178.162 57.1742 178.884 56.9771 179.408 56.6485C179.933 56.3199 180.327 55.8599 180.655 55.2684L183.803 56.517C183.475 57.3056 183.016 57.8971 182.36 58.4886C181.704 59.0143 180.983 59.4743 180.13 59.7372C179.277 60.0001 178.359 60.1315 177.375 60.1315" fill="#FCFF73"/>
</g>
<defs>
<clipPath id="clip0_2449_3089">
<rect width="184" height="60" fill="white"/>
</clipPath>
</defs>
</svg>
