<svg width="46" height="46" viewBox="0 0 46 46" fill="none" xmlns="http://www.w3.org/2000/svg">
<path opacity="0.5" d="M46 24.2525V32.2647C46 35.9076 44.5529 39.4012 41.977 41.977C39.4012 44.5529 35.9076 46 32.2647 46H13.9511C10.3083 46 6.81465 44.5529 4.23879 41.977C1.66293 39.4012 0.21582 35.9076 0.21582 32.2647V13.9511C0.21582 10.3083 1.66293 6.81464 4.23879 4.23878C6.81465 1.66292 10.3083 0.21582 13.9511 0.21582H21.9633C23.6329 0.21582 25.2342 0.879075 26.4148 2.05968C27.5954 3.24028 28.2586 4.84152 28.2586 6.51114V10.5173C28.2647 12.4886 29.0505 14.3775 30.4444 15.7714C31.8384 17.1654 33.7272 17.9511 35.6986 17.9572H39.7047C41.3743 17.9572 42.9755 18.6204 44.1561 19.801C45.3367 20.9816 46 22.5829 46 24.2525Z" fill="white"/>
<path d="M31.6917 6.51112C31.7002 4.57807 31.1258 2.68736 30.0435 1.08569C31.8862 1.77091 33.5579 2.84888 34.9424 4.2448L41.9702 11.2727C43.3558 12.6433 44.426 14.2995 45.1065 16.1258C43.5088 15.053 41.6283 14.4793 39.7039 14.4776H35.6978C34.6353 14.4776 33.6163 14.0555 32.8651 13.3042C32.1138 12.5529 31.6917 11.5339 31.6917 10.4714V6.51112Z" fill="white"/>
</svg>
