<svg width="184" height="60" viewBox="0 0 184 60" fill="none" xmlns="http://www.w3.org/2000/svg">
<g clip-path="url(#clip0_2449_3723)">
<path d="M23.8118 29.5074C21.3847 32.7276 17.4488 34.0419 12.857 34.0419C5.44456 34.0419 0 29.7046 0 22.8042C0 15.9039 5.70695 11.698 13.1194 11.698C17.1865 11.698 19.6135 12.2894 22.8278 13.3409V12.4866C22.5654 8.54355 20.1383 5.78342 15.0217 5.78342C11.8731 5.78342 8.85562 6.37488 6.03494 7.75494C5.77255 7.88638 5.51016 7.9521 5.24777 7.9521C4.5918 7.9521 4.06702 7.49207 3.73904 6.70346L3.08307 5.06053C2.88627 4.66622 2.82068 4.33764 2.82068 4.00905C2.82068 3.35188 3.14866 2.89185 3.87023 2.43183C7.15009 0.526027 11.2827 -0.0654297 15.0217 -0.0654297C24.7957 -0.0654297 30.5683 5.52055 30.5683 13.2752V31.1503C30.5683 32.5961 29.9123 33.2533 28.4692 33.2533H25.7141C24.4021 33.2533 23.6806 32.5961 23.6806 31.2161V29.4417L23.8118 29.5074ZM22.8278 18.4012C20.1383 17.4154 18.1704 17.0868 15.2185 17.0868C11.2171 17.0868 7.80606 19.2555 7.80606 22.8042C7.80606 26.353 11.0203 28.4559 14.7594 28.4559C19.4168 28.4559 22.8278 25.8929 22.8278 21.8842V18.4012Z" fill="#FF50A4"/>
<path d="M59.169 28.1275C57.2011 31.8077 53.5276 34.0421 48.2799 34.0421C40.4738 34.0421 35.8164 28.5875 35.8164 20.2414V2.89202C35.8164 1.44624 36.4724 0.789062 37.9155 0.789062H41.9169C43.3601 0.789062 44.016 1.44624 44.016 2.89202V18.9928C44.016 23.9216 46.4431 27.0103 50.8382 27.0103C55.8235 27.0103 58.2506 23.7244 58.2506 18.9928V2.89202C58.2506 1.44624 58.9066 0.789062 60.3497 0.789062H64.3512C65.7943 0.789062 66.4503 1.44624 66.4503 2.89202V31.2162C66.4503 32.662 65.7943 33.3192 64.3512 33.3192H61.3337C59.8906 33.3192 59.2346 32.662 59.2346 31.2162V28.1932L59.169 28.1275Z" fill="#FF50A4"/>
<path d="M89.08 7.49161C89.08 7.49161 89.8671 6.83444 90.2607 6.17726C90.3263 6.04583 90.4575 5.91439 90.5231 5.71724C90.5231 5.65152 90.6543 5.52009 90.6543 5.45437C91.3103 4.40289 92.0974 3.48285 92.9502 2.5628C92.9502 2.5628 93.0158 2.49709 93.0814 2.43137C94.2621 1.31417 93.9998 0.919869 93.0814 0.591282C92.3598 0.328413 91.2447 0.262695 90.3263 0.262695C84.9474 0.262695 81.3395 2.43137 79.5028 5.84868V2.82567C79.5028 1.37989 78.8468 0.722717 77.4037 0.722717H74.3862C72.9431 0.722717 72.2871 1.37989 72.2871 2.82567V31.1499C72.2871 32.5957 72.9431 33.2528 74.3862 33.2528H78.3876C79.8308 33.2528 80.4868 32.5957 80.4868 31.1499V15.0491C80.4868 10.5803 82.6515 7.36018 87.8992 7.36018C88.424 7.36018 88.6864 7.36018 88.9488 7.42589" fill="#FF50A4"/>
<path d="M127.324 17.0208C127.324 26.9441 119.715 34.0416 109.416 34.0416C99.1171 34.0416 91.5078 26.9441 91.5078 17.0208C91.5078 7.09748 99.1171 0 109.416 0C119.715 0 127.324 7.09748 127.324 17.0208ZM119.255 17.0208C119.255 11.172 115.123 6.90033 109.416 6.90033C103.709 6.90033 99.5763 11.172 99.5763 17.0208C99.5763 22.8697 103.709 27.1413 109.416 27.1413C115.123 27.1413 119.255 22.8697 119.255 17.0208Z" fill="#FF50A4"/>
<path d="M138.804 5.9141C140.64 2.4968 144.248 0.328125 149.627 0.328125C150.545 0.328125 151.661 0.328125 152.382 0.656712C153.169 0.985299 153.497 1.51104 153.497 2.16821C153.497 2.4968 153.497 2.82539 153.235 3.21969L151.989 6.37413C151.464 7.55704 151.267 7.68848 150.283 7.68848C149.43 7.68848 148.053 7.42561 147.2 7.42561C141.952 7.42561 139.788 10.58 139.788 15.1145V31.2153C139.788 32.6611 139.132 33.3183 137.688 33.3183H133.687C132.244 33.3183 131.588 32.6611 131.588 31.2153V2.8911C131.588 1.44532 132.244 0.788147 133.687 0.788147H136.704C138.148 0.788147 138.804 1.44532 138.804 2.8911V5.9141Z" fill="#FF50A4"/>
<path d="M177.113 29.5074C174.685 32.7276 170.75 34.0419 166.158 34.0419C158.745 34.0419 153.301 29.7046 153.301 22.8042C153.301 15.9039 159.008 11.698 166.42 11.698C170.487 11.698 172.914 12.2894 176.129 13.3409V12.4866C175.866 8.54355 173.439 5.78342 168.323 5.78342C165.174 5.78342 162.156 6.37488 159.336 7.75494C159.073 7.88638 158.811 7.9521 158.549 7.9521C157.893 7.9521 157.368 7.49207 157.04 6.70346L156.384 5.06053C156.187 4.66622 156.121 4.33764 156.121 4.00905C156.121 3.35188 156.449 2.89185 157.171 2.43183C160.451 0.526027 164.583 -0.0654297 168.323 -0.0654297C178.096 -0.0654297 183.869 5.52055 183.869 13.2752V31.1503C183.869 32.5961 183.213 33.2533 181.77 33.2533H179.015C177.703 33.2533 176.981 32.5961 176.981 31.2161V29.4417L177.113 29.5074ZM176.129 18.4012C173.439 17.4154 171.471 17.0868 168.519 17.0868C164.518 17.0868 161.107 19.2555 161.107 22.8042C161.107 26.353 164.321 28.4559 168.06 28.4559C172.718 28.4559 176.129 25.8929 176.129 21.8842V18.4012Z" fill="#FF50A4"/>
<path d="M111.057 60.0001C109.614 60.0001 108.236 59.7372 107.055 59.2115C105.875 58.6857 104.825 57.9628 104.104 56.9771L106.399 54.6112C106.859 55.3341 107.515 55.8599 108.236 56.3199C109.023 56.7799 109.942 56.9771 110.991 56.9771C111.778 56.9771 112.369 56.8456 112.828 56.6485C113.287 56.4513 113.484 56.057 113.484 55.597C113.484 55.2684 113.353 55.0055 113.156 54.8084C112.959 54.6112 112.5 54.4141 111.844 54.2826L109.286 53.7569C107.58 53.4283 106.399 52.9026 105.678 52.1797C104.956 51.4568 104.628 50.5367 104.628 49.4196C104.628 48.6309 104.891 47.8423 105.35 47.1852C105.809 46.4623 106.531 45.9365 107.515 45.4765C108.433 45.0165 109.679 44.8193 111.057 44.8193C112.434 44.8193 113.746 45.0165 114.861 45.4765C115.911 45.9365 116.764 46.5937 117.42 47.5137L115.058 49.8796C114.599 49.2224 114.074 48.6967 113.353 48.3024C112.631 47.9738 111.91 47.7766 111.188 47.7766C110.663 47.7766 110.204 47.7766 109.81 47.9738C109.417 48.1052 109.155 48.2366 108.958 48.4338C108.761 48.6309 108.695 48.8938 108.695 49.2224C108.695 49.551 108.827 49.8139 109.089 50.011C109.351 50.2082 109.876 50.4053 110.598 50.6025L113.55 51.1939C114.993 51.4568 116.042 51.9825 116.633 52.6397C117.223 53.3626 117.551 54.1512 117.551 55.137C117.551 56.1227 117.289 56.9113 116.829 57.6342C116.305 58.3571 115.583 58.9486 114.665 59.3429C113.681 59.7372 112.5 60.0001 111.122 60.0001" fill="#FF8461"/>
<path d="M128.571 50.4056C128.571 49.5513 128.309 48.8941 127.85 48.4341C127.39 47.9741 126.734 47.7112 125.947 47.7112C125.226 47.7112 124.57 47.9083 124.045 48.2369C123.52 48.6312 123.127 49.2227 122.864 50.077L119.453 49.0255C119.781 47.7112 120.503 46.7254 121.618 45.9368C122.733 45.1482 124.242 44.7539 126.144 44.7539C127.456 44.7539 128.571 44.9511 129.489 45.3454C130.408 45.7397 131.195 46.3311 131.72 47.1197C132.245 47.9083 132.507 48.8941 132.507 50.1427V56.0573C132.507 56.7802 132.835 57.1745 133.557 57.1745C133.885 57.1745 134.212 57.1745 134.475 57.0431L134.212 59.5403C133.688 59.8032 133.097 59.9346 132.31 59.9346C131.654 59.9346 130.998 59.8032 130.473 59.606C129.949 59.3432 129.489 59.0146 129.162 58.5546C128.834 58.0945 128.702 57.5031 128.702 56.7802V56.6488L129.424 56.5173C129.293 57.2402 128.965 57.8974 128.44 58.4231C127.915 58.9489 127.259 59.3432 126.538 59.606C125.816 59.8689 125.029 60.0003 124.242 60.0003C123.258 60.0003 122.405 59.8689 121.683 59.5403C120.962 59.2117 120.437 58.8174 120.044 58.226C119.65 57.6345 119.453 56.9116 119.453 56.0573C119.453 54.9401 119.781 54.0858 120.503 53.3629C121.224 52.7057 122.208 52.18 123.52 51.9171L128.965 50.7999V53.2972L125.422 54.0201C124.767 54.1515 124.242 54.3486 123.914 54.5458C123.586 54.743 123.389 55.1373 123.389 55.663C123.389 56.1887 123.586 56.5173 123.914 56.7802C124.242 57.0431 124.701 57.1745 125.226 57.1745C125.619 57.1745 126.013 57.1745 126.406 57.0431C126.8 56.9773 127.128 56.7802 127.456 56.583C127.784 56.3859 127.981 56.0573 128.178 55.7287C128.374 55.3344 128.44 54.9401 128.44 54.4144V50.4713L128.571 50.4056Z" fill="#FF8461"/>
<path d="M141.035 60.0002C140.051 60.0002 139.198 59.8031 138.411 59.4745C137.624 59.1459 137.033 58.5544 136.574 57.7658C136.115 56.9772 135.918 55.9915 135.918 54.7428V45.0824H139.919V53.8228C139.919 54.94 140.182 55.7286 140.641 56.1886C141.1 56.6486 141.756 56.8458 142.674 56.8458C143.068 56.8458 143.462 56.7801 143.855 56.6486C144.249 56.5172 144.577 56.2543 144.905 55.9915C145.233 55.6629 145.43 55.2686 145.626 54.8085C145.823 54.2828 145.889 53.7571 145.889 53.0342V45.2138H149.89V59.8031H146.348L146.217 57.2401C145.758 58.2259 145.036 58.9487 144.249 59.4088C143.396 59.8688 142.412 60.0659 141.231 60.0659M143.068 38.3135H146.938L144.052 43.2423H141.1L143.134 38.3135H143.068Z" fill="#FF8461"/>
<path d="M158.615 59.9998C157.434 59.9998 156.319 59.6712 155.4 59.0797C154.482 58.4883 153.695 57.6339 153.17 56.451C152.645 55.3338 152.383 53.9538 152.383 52.3765C152.383 50.7993 152.645 49.3535 153.236 48.2363C153.826 47.1191 154.548 46.2648 155.531 45.6076C156.515 45.0162 157.565 44.6876 158.746 44.6876C160.058 44.6876 161.107 45.0819 161.894 45.8048C162.747 46.5277 163.272 47.5135 163.534 48.6964L163.141 49.1564V38.6416H167.142V59.6055H163.534L163.272 55.2024L163.731 55.4653C163.6 56.3853 163.338 57.1739 162.813 57.8311C162.354 58.4883 161.698 59.014 160.976 59.4083C160.254 59.8026 159.402 59.934 158.549 59.934M159.73 56.8453C160.451 56.8453 161.042 56.6482 161.566 56.3196C162.091 55.991 162.485 55.3995 162.747 54.7424C163.01 54.0195 163.141 53.2309 163.141 52.2451C163.141 51.2593 163.01 50.5365 162.747 49.8793C162.485 49.2221 162.091 48.6964 161.566 48.3678C161.042 48.0392 160.451 47.842 159.795 47.842C158.68 47.842 157.827 48.2363 157.237 49.025C156.647 49.8136 156.319 50.9308 156.319 52.3765C156.319 53.8223 156.647 55.0052 157.237 55.7281C157.827 56.5167 158.68 56.911 159.73 56.911" fill="#FF8461"/>
<path d="M177.309 60.0001C175.801 60.0001 174.423 59.6715 173.308 59.08C172.193 58.4886 171.274 57.6342 170.684 56.4513C170.094 55.3341 169.766 53.9541 169.766 52.3768C169.766 50.7996 170.094 49.4196 170.684 48.3024C171.274 47.1852 172.193 46.3308 173.308 45.7394C174.423 45.1479 175.669 44.8193 177.113 44.8193C178.556 44.8193 179.868 45.1479 180.852 45.7394C181.901 46.3308 182.688 47.1194 183.213 48.1709C183.738 49.2224 184 50.3396 184 51.6539C184 52.0483 184 52.4426 184 52.7711C184 53.0997 184 53.4283 183.935 53.6912H172.324V50.9311H182.163L180.261 51.6539C180.261 50.4053 179.999 49.4853 179.408 48.8281C178.884 48.1709 178.096 47.8423 177.047 47.8423C176.325 47.8423 175.669 48.0395 175.145 48.3681C174.62 48.6967 174.226 49.2224 173.964 49.9453C173.701 50.6682 173.57 51.5225 173.57 52.574C173.57 53.6255 173.701 54.4798 174.029 55.137C174.357 55.7941 174.751 56.3199 175.341 56.6485C175.866 56.9771 176.588 57.1742 177.309 57.1742C178.162 57.1742 178.884 56.9771 179.408 56.6485C179.933 56.3199 180.327 55.8599 180.655 55.2684L183.803 56.517C183.475 57.3056 183.016 57.8971 182.36 58.4886C181.704 59.0143 180.983 59.4743 180.13 59.7372C179.277 60.0001 178.359 60.1315 177.375 60.1315" fill="#FF8461"/>
</g>
<defs>
<clipPath id="clip0_2449_3723">
<rect width="184" height="60" fill="white"/>
</clipPath>
</defs>
</svg>
