<svg width="20" height="21" viewBox="0 0 20 21" fill="none" xmlns="http://www.w3.org/2000/svg">
<path opacity="0.5" d="M14 0.5H6C2.68629 0.5 0 3.18629 0 6.5V14.5C0 17.8137 2.68629 20.5 6 20.5H14C17.3137 20.5 20 17.8137 20 14.5V6.5C20 3.18629 17.3137 0.5 14 0.5Z" fill="#FF8461"/>
<path d="M13.4531 11.4934H6.45312C6.18791 11.4934 5.93355 11.3932 5.74602 11.2148C5.55848 11.0364 5.45312 10.7945 5.45312 10.5422C5.45312 10.29 5.55848 10.048 5.74602 9.86966C5.93355 9.69128 6.18791 9.59106 6.45312 9.59106H13.4531C13.7183 9.59106 13.9727 9.69128 14.1602 9.86966C14.3478 10.048 14.4531 10.29 14.4531 10.5422C14.4531 10.7945 14.3478 11.0364 14.1602 11.2148C13.9727 11.3932 13.7183 11.4934 13.4531 11.4934Z" fill="#FF8461"/>
</svg>
