<svg width="35" height="50" viewBox="0 0 35 50" fill="none" xmlns="http://www.w3.org/2000/svg">
<path opacity="0.5" d="M24.7732 0.648926H10.2283C4.87305 0.648926 0.531738 4.99023 0.531738 10.3455V39.4353C0.531738 44.7905 4.87305 49.1318 10.2283 49.1318H24.7732C30.1285 49.1318 34.4698 44.7905 34.4698 39.4353V10.3455C34.4698 4.99023 30.1285 0.648926 24.7732 0.648926Z" fill="white"/>
<path d="M17.5013 39.4113C16.8584 39.4113 16.2418 39.1559 15.7872 38.7013C15.3325 38.2467 15.0771 37.6301 15.0771 36.9871C15.0771 36.3442 15.3325 35.7276 15.7872 35.273C16.2418 34.8184 16.8584 34.563 17.5013 34.563C18.1442 34.563 18.7608 34.8184 19.2154 35.273C19.67 35.7276 19.9254 36.3442 19.9254 36.9871C19.9254 37.6301 19.67 38.2467 19.2154 38.7013C18.7608 39.1559 18.1442 39.4113 17.5013 39.4113Z" fill="white"/>
</svg>
