<svg width="15" height="13" viewBox="0 0 15 13" fill="none" xmlns="http://www.w3.org/2000/svg">
<path opacity="0.5" d="M1.92217 12.5296H9.37315C10.7252 12.5296 12.0219 11.9925 12.978 11.0364C13.9341 10.0803 14.4712 8.78362 14.4712 7.43154C14.4712 6.07945 13.9341 4.78275 12.978 3.82668C12.0219 2.87061 10.7252 2.3335 9.37315 2.3335H1.38884C1.18083 2.3335 0.981333 2.41613 0.834246 2.56322C0.687158 2.7103 0.604525 2.9098 0.604525 3.11781C0.604525 3.32582 0.687158 3.52532 0.834246 3.6724C0.981333 3.81949 1.18083 3.90212 1.38884 3.90212H9.37315C10.3092 3.90212 11.2069 4.27397 11.8688 4.93586C12.5307 5.59776 12.9026 6.49548 12.9026 7.43154C12.9026 8.36759 12.5307 9.26531 11.8688 9.92721C11.2069 10.5891 10.3092 10.9609 9.37315 10.9609H1.92217C1.71416 10.9609 1.51466 11.0436 1.36758 11.1907C1.22049 11.3378 1.13786 11.5372 1.13786 11.7453C1.13786 11.9533 1.22049 12.1528 1.36758 12.2999C1.51466 12.4469 1.71416 12.5296 1.92217 12.5296Z" fill="#ED137B"/>
<path d="M0.580965 3.67514L2.54175 5.63592C2.61504 5.70861 2.70195 5.76612 2.79751 5.80515C2.89307 5.84419 2.99539 5.86397 3.09861 5.86337C3.20058 5.86462 3.30182 5.84597 3.39665 5.80847C3.54112 5.74912 3.66458 5.648 3.75121 5.51805C3.83784 5.3881 3.88371 5.23524 3.88292 5.07906V1.15749C3.88227 1.00237 3.83564 0.850935 3.74893 0.72232C3.66221 0.593706 3.53931 0.493692 3.39575 0.434927C3.2522 0.376162 3.09444 0.361284 2.94243 0.392175C2.79042 0.423065 2.65098 0.498336 2.54175 0.608471L0.580965 2.56926C0.434885 2.71621 0.35289 2.91499 0.35289 3.1222C0.35289 3.3294 0.434885 3.52819 0.580965 3.67514Z" fill="#ED137B"/>
</svg>
