<svg width="53" height="53" viewBox="0 0 53 53" fill="none" xmlns="http://www.w3.org/2000/svg">
<path opacity="0.5" d="M26.2425 52.7448C40.5752 52.7448 52.194 41.1259 52.194 26.7933C52.194 12.4607 40.5752 0.841797 26.2425 0.841797C11.9099 0.841797 0.291016 12.4607 0.291016 26.7933C0.291016 41.1259 11.9099 52.7448 26.2425 52.7448Z" fill="white"/>
<path d="M22.9467 17.7104C22.1384 17.71 21.3617 18.0238 20.7805 18.5856C20.1994 19.1473 19.8595 19.913 19.8325 20.7208C19.8325 22.3039 19.8325 24.4059 19.8325 26.7935C19.8325 29.181 19.8325 31.2831 19.8325 32.8661C19.8595 33.6739 20.1994 34.4396 20.7805 35.0014C21.3617 35.5631 22.1384 35.877 22.9467 35.8765C23.5045 35.8751 24.0516 35.7227 24.5297 35.4353C25.7754 34.7346 28.2927 33.2554 29.3048 32.6326L33.6128 29.9077C34.1344 29.5716 34.5641 29.1109 34.8631 28.5672C35.1621 28.0235 35.3211 27.414 35.3256 26.7935C35.3254 26.1686 35.1685 25.5538 34.8693 25.0052C34.57 24.4566 34.138 23.9918 33.6128 23.6533L29.4605 21.0582C28.4225 20.4094 25.8014 18.8783 24.5297 18.1516C24.0516 17.8643 23.5045 17.7118 22.9467 17.7104Z" fill="white"/>
</svg>
