<svg width="18" height="18" viewBox="0 0 18 18" fill="none" xmlns="http://www.w3.org/2000/svg">
<path opacity="0.5" d="M17.3346 5.6665V12.3332C17.3346 13.6593 16.8079 14.931 15.8702 15.8687C14.9325 16.8064 13.6607 17.3332 12.3346 17.3332H5.66797C4.34189 17.3332 3.07012 16.8064 2.13243 15.8687C1.19475 14.931 0.667969 13.6593 0.667969 12.3332V5.6665C0.667969 4.34042 1.19475 3.06865 2.13243 2.13097C3.07012 1.19329 4.34189 0.666504 5.66797 0.666504H12.3346C13.6607 0.666504 14.9325 1.19329 15.8702 2.13097C16.8079 3.06865 17.3346 4.34042 17.3346 5.6665Z" fill="white"/>
<path d="M12.752 8.99976C12.752 9.22077 12.6642 9.43273 12.5079 9.58901C12.3516 9.74529 12.1396 9.83309 11.9186 9.83309H9.83529V11.9164C9.83529 12.1374 9.74749 12.3494 9.59121 12.5057C9.43493 12.662 9.22297 12.7498 9.00195 12.7498C8.78094 12.7498 8.56898 12.662 8.4127 12.5057C8.25642 12.3494 8.16862 12.1374 8.16862 11.9164V9.83309H6.08529C5.86427 9.83309 5.65231 9.74529 5.49603 9.58901C5.33975 9.43273 5.25195 9.22077 5.25195 8.99976C5.25195 8.77874 5.33975 8.56678 5.49603 8.4105C5.65231 8.25422 5.86427 8.16642 6.08529 8.16642H8.16862V6.08309C8.16862 5.86208 8.25642 5.65011 8.4127 5.49383C8.56898 5.33755 8.78094 5.24976 9.00195 5.24976C9.22297 5.24976 9.43493 5.33755 9.59121 5.49383C9.74749 5.65011 9.83529 5.86208 9.83529 6.08309V8.16642H11.9186C12.1396 8.16642 12.3516 8.25422 12.5079 8.4105C12.6642 8.56678 12.752 8.77874 12.752 8.99976Z" fill="white"/>
</svg>
