<svg width="49" height="48" viewBox="0 0 49 48" fill="none" xmlns="http://www.w3.org/2000/svg">
<path opacity="0.5" d="M48.3956 14.5914V33.628C48.3956 37.4146 46.8914 41.0461 44.2139 43.7236C41.5363 46.4012 37.9048 47.9054 34.1182 47.9054H15.0816C11.295 47.9054 7.6635 46.4012 4.98596 43.7236C2.30842 41.0461 0.804199 37.4146 0.804199 33.628V14.5914C0.804199 10.8048 2.30842 7.17326 4.98596 4.49572C7.6635 1.81819 11.295 0.313965 15.0816 0.313965H34.1182C37.9048 0.313965 41.5363 1.81819 44.2139 4.49572C46.8914 7.17326 48.3956 10.8048 48.3956 14.5914Z" fill="white"/>
<path d="M35.3077 24.1097C35.3077 24.7408 35.057 25.346 34.6108 25.7923C34.1645 26.2385 33.5593 26.4893 32.9282 26.4893H26.9792V32.4382C26.9792 33.0693 26.7285 33.6745 26.2823 34.1208C25.836 34.567 25.2308 34.8177 24.5997 34.8177C23.9686 34.8177 23.3633 34.567 22.9171 34.1208C22.4708 33.6745 22.2201 33.0693 22.2201 32.4382V26.4893H16.2712C15.6401 26.4893 15.0348 26.2385 14.5886 25.7923C14.1423 25.346 13.8916 24.7408 13.8916 24.1097C13.8916 23.4786 14.1423 22.8733 14.5886 22.4271C15.0348 21.9808 15.6401 21.7301 16.2712 21.7301H22.2201V15.7812C22.2201 15.1501 22.4708 14.5448 22.9171 14.0986C23.3633 13.6523 23.9686 13.4016 24.5997 13.4016C25.2308 13.4016 25.836 13.6523 26.2823 14.0986C26.7285 14.5448 26.9792 15.1501 26.9792 15.7812V21.7301H32.9282C33.5593 21.7301 34.1645 21.9808 34.6108 22.4271C35.057 22.8733 35.3077 23.4786 35.3077 24.1097Z" fill="white"/>
</svg>
