<svg width="36" height="36" viewBox="0 0 36 36" fill="none" xmlns="http://www.w3.org/2000/svg">
<path opacity="0.5" d="M34.9325 35.0269C34.7693 35.1893 34.5757 35.3177 34.3628 35.4049C34.15 35.4921 33.9221 35.5363 33.6922 35.5349C33.2339 35.533 32.7948 35.3506 32.4694 35.0269L26.0234 28.563C26.9473 27.8438 27.7803 27.0143 28.504 26.093L34.9325 32.5395C35.0962 32.7023 35.2262 32.896 35.3149 33.1095C35.4035 33.323 35.4492 33.5519 35.4492 33.7832C35.4492 34.0144 35.4035 34.2434 35.3149 34.4569C35.2262 34.6703 35.0962 34.8641 34.9325 35.0269Z" fill="#ED137B"/>
<path d="M31.9453 16.2657C31.9267 19.8441 30.6946 23.3098 28.4516 26.093C27.7279 27.0143 26.8949 27.8438 25.971 28.563C23.2018 30.8235 19.7418 32.0605 16.1711 32.0665C12.0014 32.0665 8.00246 30.4054 5.05404 27.4488C2.10562 24.4921 0.449219 20.4821 0.449219 16.3007C0.449219 12.1194 2.10562 8.10932 5.05404 5.15268C8.00246 2.19603 12.0014 0.535 16.1711 0.535C18.2372 0.528089 20.2843 0.929623 22.1956 1.71664C24.1068 2.50366 25.8446 3.66072 27.3096 5.12168C28.7746 6.58264 29.9381 8.31884 30.7335 10.231C31.529 12.1432 31.9407 14.1938 31.9453 16.2657Z" fill="#ED137B"/>
</svg>
