<svg width="17" height="17" viewBox="0 0 17 17" fill="none" xmlns="http://www.w3.org/2000/svg">
<path d="M8.5 17C13.1944 17 17 13.1944 17 8.5C17 3.80558 13.1944 0 8.5 0C3.80558 0 0 3.80558 0 8.5C0 13.1944 3.80558 17 8.5 17Z" fill="#D9D9D9"/>
<path fill-rule="evenodd" clip-rule="evenodd" d="M3.84747 8.41021C6.3254 7.33062 7.97773 6.61889 8.80448 6.27502C11.165 5.29319 11.6555 5.12264 11.9752 5.117C12.0455 5.11576 12.2028 5.13319 12.3046 5.21583C12.3906 5.2856 12.4143 5.37986 12.4256 5.44602C12.4369 5.51217 12.451 5.66288 12.4398 5.78063C12.3119 7.12468 11.7584 10.3863 11.4768 11.8917C11.3576 12.5287 11.123 12.7422 10.8959 12.7631C10.4023 12.8086 10.0274 12.4369 9.54936 12.1235C8.80125 11.6331 8.37861 11.3279 7.65244 10.8493C6.81323 10.2963 7.35726 9.99235 7.83552 9.4956C7.96069 9.3656 10.1355 7.3874 10.1776 7.20795C10.1829 7.1855 10.1878 7.10184 10.1381 7.05767C10.0884 7.01349 10.015 7.0286 9.9621 7.04061C9.88707 7.05764 8.69195 7.84757 6.37675 9.41039C6.03752 9.64333 5.73026 9.75683 5.45496 9.75088C5.15147 9.74433 4.56767 9.57928 4.13367 9.43821C3.60136 9.26517 3.17829 9.17369 3.21513 8.87983C3.23432 8.72676 3.4451 8.57023 3.84747 8.41021Z" fill="white"/>
</svg>
