<svg width="58" height="58" viewBox="0 0 58 58" fill="none" xmlns="http://www.w3.org/2000/svg">
<path opacity="0.5" d="M52.7002 26.7827C52.7002 27.4175 52.448 28.0264 51.9991 28.4752C51.5502 28.9241 50.9414 29.1763 50.3066 29.1763H46.7161V32.7668C46.7161 33.4016 46.4639 34.0104 46.015 34.4593C45.5662 34.9082 44.9573 35.1604 44.3225 35.1604C43.6877 35.1604 43.0788 34.9082 42.63 34.4593C42.1811 34.0104 41.9289 33.4016 41.9289 32.7668V29.1763H38.3384C37.7036 29.1763 37.0948 28.9241 36.6459 28.4752C36.197 28.0264 35.9448 27.4175 35.9448 26.7827C35.9448 26.1479 36.197 25.539 36.6459 25.0902C37.0948 24.6413 37.7036 24.3891 38.3384 24.3891H41.9289V20.7987C41.9289 20.1638 42.1811 19.555 42.63 19.1061C43.0788 18.6572 43.6877 18.405 44.3225 18.405C44.9573 18.405 45.5662 18.6572 46.015 19.1061C46.4639 19.555 46.7161 20.1638 46.7161 20.7987V24.3891H50.3066C50.9414 24.3891 51.5502 24.6413 51.9991 25.0902C52.448 25.539 52.7002 26.1479 52.7002 26.7827Z" fill="white"/>
<path d="M21.584 53.1125C30.8377 53.1125 38.3393 47.7542 38.3393 41.1444C38.3393 34.5346 30.8377 29.1763 21.584 29.1763C12.3302 29.1763 4.82861 34.5346 4.82861 41.1444C4.82861 47.7542 12.3302 53.1125 21.584 53.1125Z" fill="white"/>
<path opacity="0.5" d="M21.5838 26.7828C27.5326 26.7828 32.3551 21.9604 32.3551 16.0115C32.3551 10.0627 27.5326 5.24023 21.5838 5.24023C15.635 5.24023 10.8125 10.0627 10.8125 16.0115C10.8125 21.9604 15.635 26.7828 21.5838 26.7828Z" fill="white"/>
</svg>
