<svg width="18" height="18" viewBox="0 0 18 18" fill="none" xmlns="http://www.w3.org/2000/svg">
<path d="M9.03772 0C4.09791 0 0.0770126 4.00104 0.074917 8.91867C0.0743931 10.4906 0.487223 12.025 1.27149 13.3775L0 18L4.75121 16.7596C6.06042 17.4703 7.53414 17.8446 9.03405 17.8452H9.03772C13.977 17.8452 17.9979 13.8436 18 8.92596C18.001 6.54275 17.0696 4.30188 15.3774 2.61627C13.6852 0.930136 11.4351 0.00104275 9.03772 0ZM9.03772 16.3389H9.03458C7.69812 16.3389 6.38681 15.9807 5.24315 15.3055L4.97124 15.1449L2.15216 15.8811L2.90448 13.1455L2.7274 12.865C1.9819 11.6846 1.58793 10.3201 1.58845 8.91971C1.59002 4.83212 4.93195 1.50678 9.04086 1.50678C11.0306 1.5073 12.9009 2.27946 14.3071 3.68092C15.7137 5.08186 16.4875 6.94473 16.487 8.92544C16.4854 13.013 13.1435 16.3389 9.03772 16.3389ZM13.1236 10.7868C12.8999 10.6752 11.7986 10.1361 11.5933 10.0615C11.3879 9.98697 11.2386 9.94995 11.0893 10.1731C10.94 10.3962 10.5109 10.8983 10.3805 11.0469C10.25 11.196 10.119 11.2143 9.89534 11.1027C9.67163 10.9911 8.94971 10.7555 8.09471 9.99635C7.42884 9.40563 6.97933 8.6757 6.84888 8.45255C6.71843 8.22941 6.83474 8.10897 6.94738 7.99791C7.04797 7.89833 7.17108 7.73775 7.28319 7.6074C7.39531 7.47706 7.4325 7.38425 7.5069 7.23514C7.58129 7.08655 7.54409 6.9562 7.48804 6.84463C7.43198 6.73306 6.98405 5.63608 6.79754 5.18978C6.61575 4.75547 6.43134 4.81387 6.29356 4.80709C6.16311 4.80031 6.0138 4.79927 5.86449 4.79927C5.71518 4.79927 5.47261 4.85506 5.26724 5.07821C5.06188 5.30136 4.4835 5.84046 4.4835 6.93743C4.4835 8.03441 5.2861 9.09437 5.39769 9.24296C5.50981 9.39155 6.97672 11.6429 9.22318 12.6079C9.75755 12.8373 10.1746 12.9745 10.4999 13.0772C11.0364 13.2466 11.5247 13.2226 11.9102 13.1653C12.3404 13.1011 13.2352 12.6262 13.4217 12.1053C13.6082 11.585 13.6082 11.1387 13.5521 11.0454C13.4961 10.9526 13.3468 10.8968 13.1231 10.7852L13.1236 10.7868Z" fill="#D9D9D9"/>
</svg>
