<svg style="display:none">
	<symbol id="Logo" viewBox="0 0 126 16" fill="none" xmlns="http://www.w3.org/2000/svg"><path d="M0.459999 0.999999H10.02V2.98H2.84V6.92H8.22V8.9H2.84V15H0.459999V0.999999Z" fill="#161616"/><path d="M23.6177 2.98H22.8977L18.6977 15H16.2577L21.2177 0.999999H25.2577L30.2377 15H27.7977L23.6177 2.98ZM18.9777 9.62H27.1377V11.58H18.9777V9.62Z" fill="#161616"/><path d="M40.435 11.16C40.515 11.5333 40.6683 11.8733 40.895 12.18C41.135 12.4733 41.4483 12.7067 41.835 12.88C42.235 13.0533 42.7083 13.14 43.255 13.14C44.095 13.14 44.7217 12.9467 45.135 12.56C45.5483 12.16 45.755 11.6933 45.755 11.16C45.755 10.72 45.6217 10.3533 45.355 10.06C45.1017 9.76667 44.7417 9.52 44.275 9.32C43.8083 9.10667 43.275 8.90667 42.675 8.72C42.1283 8.56 41.6017 8.39333 41.095 8.22C40.5883 8.03333 40.1283 7.80667 39.715 7.54C39.315 7.26 38.995 6.90667 38.755 6.48C38.515 6.04 38.4017 5.49333 38.415 4.84C38.415 3.98667 38.615 3.26667 39.015 2.68C39.415 2.08 39.975 1.62667 40.695 1.32C41.415 1.01333 42.2417 0.86 43.175 0.86C43.9617 0.86 44.6683 0.973333 45.295 1.2C45.935 1.41333 46.475 1.73333 46.915 2.16C47.355 2.57333 47.6817 3.08667 47.895 3.7L45.715 4.42C45.635 4.12667 45.475 3.86667 45.235 3.64C44.995 3.4 44.695 3.21333 44.335 3.08C43.9883 2.94667 43.6083 2.87333 43.195 2.86C42.7417 2.84667 42.335 2.91333 41.975 3.06C41.6283 3.20667 41.3483 3.42 41.135 3.7C40.9217 3.96667 40.815 4.28 40.815 4.64C40.815 5.05333 40.935 5.38 41.175 5.62C41.415 5.84667 41.7283 6.04 42.115 6.2C42.515 6.34667 42.955 6.5 43.435 6.66C43.995 6.82 44.5483 7.00667 45.095 7.22C45.655 7.42 46.1617 7.68 46.615 8C47.0817 8.30667 47.455 8.7 47.735 9.18C48.015 9.66 48.155 10.26 48.155 10.98C48.155 11.7533 47.975 12.4533 47.615 13.08C47.2683 13.7067 46.735 14.2067 46.015 14.58C45.295 14.9533 44.4017 15.14 43.335 15.14C42.4683 15.14 41.675 15.0133 40.955 14.76C40.2483 14.4933 39.655 14.12 39.175 13.64C38.7083 13.1467 38.4017 12.5667 38.255 11.9L40.435 11.16Z" fill="#161616"/><path d="M57.4952 0.999999H59.8752V6.92H66.4752V0.999999H68.8352V15H66.4752V8.9H59.8752V15H57.4952V0.999999Z" fill="#161616"/><path d="M78.7725 0.999999H81.1525V15H78.7725V0.999999Z" fill="#161616"/><path d="M97.485 15.14C96.4983 15.14 95.5717 14.9667 94.705 14.62C93.8383 14.2733 93.0783 13.7867 92.425 13.16C91.785 12.52 91.2783 11.7667 90.905 10.9C90.545 10.02 90.365 9.05333 90.365 8C90.365 6.96 90.545 6.00667 90.905 5.14C91.2783 4.26 91.785 3.5 92.425 2.86C93.0783 2.22 93.8383 1.72667 94.705 1.38C95.5717 1.03333 96.4983 0.86 97.485 0.86C98.4717 0.86 99.3917 1.03333 100.245 1.38C101.112 1.72667 101.865 2.22 102.505 2.86C103.158 3.5 103.665 4.26 104.025 5.14C104.398 6.00667 104.585 6.96 104.585 8C104.585 9.05333 104.398 10.02 104.025 10.9C103.665 11.7667 103.158 12.52 102.505 13.16C101.865 13.7867 101.112 14.2733 100.245 14.62C99.3917 14.9667 98.4717 15.14 97.485 15.14ZM97.485 13.12C98.3917 13.12 99.1983 12.9133 99.905 12.5C100.612 12.0733 101.165 11.48 101.565 10.72C101.965 9.94667 102.165 9.04 102.165 8C102.165 6.94667 101.965 6.04 101.565 5.28C101.165 4.52 100.612 3.93333 99.905 3.52C99.1983 3.09333 98.3917 2.88 97.485 2.88C96.5783 2.88 95.7717 3.09333 95.065 3.52C94.3583 3.93333 93.7983 4.52 93.385 5.28C92.985 6.04 92.785 6.94667 92.785 8C92.785 9.04 92.985 9.94667 93.385 10.72C93.7983 11.48 94.3583 12.0733 95.065 12.5C95.7717 12.9133 96.5783 13.12 97.485 13.12Z" fill="#161616"/><path d="M125.089 0.999999V15H122.669L116.149 4.74V15H113.769V0.999999H116.209L122.729 11.22V0.999999H125.089Z" fill="#161616"/></symbol>
	<symbol id="ChevronLeft" xmlns="http://www.w3.org/2000/svg" fill="none" viewBox="0 0 24 24" stroke="currentColor"><path stroke-linecap="round" stroke-linejoin="round" d="M15.75 19.5L8.25 12l7.5-7.5" /></symbol>
	<symbol id="ChevronRight" xmlns="http://www.w3.org/2000/svg" fill="none" viewBox="0 0 24 24" stroke="currentColor"><path stroke-linecap="round" stroke-linejoin="round" d="M8.25 4.5l7.5 7.5-7.5 7.5" /></symbol>
	<symbol id="ChevronUp" xmlns="http://www.w3.org/2000/svg" fill="none" viewBox="0 0 24 24" stroke="currentColor"><path stroke-linecap="round" stroke-linejoin="round" d="M4.5 15.75l7.5-7.5 7.5 7.5" /></symbol>	
	<symbol id="ChevronDown" xmlns="http://www.w3.org/2000/svg" fill="none" viewBox="0 0 24 24" stroke="currentColor"><path stroke-linecap="round" stroke-linejoin="round" d="M19.5 8.25l-7.5 7.5-7.5-7.5" /></symbol>
	<symbol id="QuestionMarkCircle" xmlns="http://www.w3.org/2000/svg" fill="none" viewBox="0 0 24 24" stroke="currentColor"><path stroke-linecap="round" stroke-linejoin="round" d="M9.879 7.519c1.171-1.025 3.071-1.025 4.242 0 1.172 1.025 1.172 2.687 0 3.712-.203.179-.43.326-.67.442-.745.361-1.45.999-1.45 1.827v.75M21 12a9 9 0 11-18 0 9 9 0 0118 0zm-9 5.25h.008v.008H12v-.008z" /></symbol>
	<symbol id="User" width="20" height="20" viewBox="0 0 20 20" fill="none" xmlns="http://www.w3.org/2000/svg"><path fill-rule="evenodd" clip-rule="evenodd" d="M10.0003 3.33366C8.61961 3.33366 7.50033 4.45295 7.50033 5.83366C7.50033 7.21437 8.61961 8.33366 10.0003 8.33366C11.381 8.33366 12.5003 7.21437 12.5003 5.83366C12.5003 4.45295 11.381 3.33366 10.0003 3.33366ZM5.83366 5.83366C5.83366 3.53247 7.69914 1.66699 10.0003 1.66699C12.3015 1.66699 14.167 3.53247 14.167 5.83366C14.167 8.13484 12.3015 10.0003 10.0003 10.0003C7.69914 10.0003 5.83366 8.13484 5.83366 5.83366ZM8.33366 13.3337C7.67062 13.3337 7.03473 13.597 6.56589 14.0659C6.09705 14.5347 5.83366 15.1706 5.83366 15.8337V17.5003C5.83366 17.9606 5.46056 18.3337 5.00033 18.3337C4.54009 18.3337 4.16699 17.9606 4.16699 17.5003V15.8337C4.16699 14.7286 4.60598 13.6688 5.38738 12.8874C6.16878 12.106 7.22859 11.667 8.33366 11.667H11.667C12.7721 11.667 13.8319 12.106 14.6133 12.8874C15.3947 13.6688 15.8337 14.7286 15.8337 15.8337V17.5003C15.8337 17.9606 15.4606 18.3337 15.0003 18.3337C14.5401 18.3337 14.167 17.9606 14.167 17.5003V15.8337C14.167 15.1706 13.9036 14.5347 13.4348 14.0659C12.9659 13.597 12.33 13.3337 11.667 13.3337H8.33366Z" fill="currentColor"/></symbol>
	<symbol id="ShoppingCart" width="20" height="20" viewBox="0 0 20 20" fill="none" xmlns="http://www.w3.org/2000/svg"><path d="M14.9997 5.00033H13.333C13.333 3.15866 11.8413 1.66699 9.99968 1.66699C8.15801 1.66699 6.66634 3.15866 6.66634 5.00033H4.99967C4.08301 5.00033 3.33301 5.75033 3.33301 6.66699V16.667C3.33301 17.5837 4.08301 18.3337 4.99967 18.3337H14.9997C15.9163 18.3337 16.6663 17.5837 16.6663 16.667V6.66699C16.6663 5.75033 15.9163 5.00033 14.9997 5.00033ZM9.99968 3.33366C10.9163 3.33366 11.6663 4.08366 11.6663 5.00033H8.33301C8.33301 4.08366 9.08301 3.33366 9.99968 3.33366ZM14.9997 16.667H4.99967V6.66699H6.66634V8.33366C6.66634 8.79199 7.04134 9.16699 7.49967 9.16699C7.95801 9.16699 8.33301 8.79199 8.33301 8.33366V6.66699H11.6663V8.33366C11.6663 8.79199 12.0413 9.16699 12.4997 9.16699C12.958 9.16699 13.333 8.79199 13.333 8.33366V6.66699H14.9997V16.667Z" fill="currentColor"/></symbol>
	<symbol id="Bars3" xmlns="http://www.w3.org/2000/svg" viewBox="0 0 20 20" stroke="currentColor" fill="none"><path fill-rule="evenodd" clip-rule="evenodd" d="M2.5 5.00033C2.5 4.54009 2.8731 4.16699 3.33333 4.16699H16.6667C17.1269 4.16699 17.5 4.54009 17.5 5.00033C17.5 5.46056 17.1269 5.83366 16.6667 5.83366H3.33333C2.8731 5.83366 2.5 5.46056 2.5 5.00033ZM2.5 10.0003C2.5 9.54009 2.8731 9.16699 3.33333 9.16699H16.6667C17.1269 9.16699 17.5 9.54009 17.5 10.0003C17.5 10.4606 17.1269 10.8337 16.6667 10.8337H3.33333C2.8731 10.8337 2.5 10.4606 2.5 10.0003ZM2.5 15.0003C2.5 14.5401 2.8731 14.167 3.33333 14.167H16.6667C17.1269 14.167 17.5 14.5401 17.5 15.0003C17.5 15.4606 17.1269 15.8337 16.6667 15.8337H3.33333C2.8731 15.8337 2.5 15.4606 2.5 15.0003Z" fill="currentColor"/></symbol>
	<symbol id="Heart" xmlns="http://www.w3.org/2000/svg" viewBox="0 0 24 24" stroke="currentColor"><path stroke-linecap="round" stroke-linejoin="round" d="M21 8.25c0-2.485-2.099-4.5-4.688-4.5-1.935 0-3.597 1.126-4.312 2.733-.715-1.607-2.377-2.733-4.313-2.733C5.1 3.75 3 5.765 3 8.25c0 7.22 9 12 9 12s9-4.78 9-12z" /></symbol>
	<symbol id="MagnifyingGlass" width="20" height="20" viewBox="0 0 20 20" fill="none" xmlns="http://www.w3.org/2000/svg"><path fill-rule="evenodd" clip-rule="evenodd" d="M8.33366 3.33366C5.57223 3.33366 3.33366 5.57223 3.33366 8.33366C3.33366 11.0951 5.57223 13.3337 8.33366 13.3337C11.0951 13.3337 13.3337 11.0951 13.3337 8.33366C13.3337 5.57223 11.0951 3.33366 8.33366 3.33366ZM1.66699 8.33366C1.66699 4.65176 4.65176 1.66699 8.33366 1.66699C12.0156 1.66699 15.0003 4.65176 15.0003 8.33366C15.0003 9.87425 14.4778 11.2928 13.6002 12.4217L18.0896 16.9111C18.415 17.2365 18.415 17.7641 18.0896 18.0896C17.7641 18.415 17.2365 18.415 16.9111 18.0896L12.4217 13.6002C11.2928 14.4778 9.87425 15.0003 8.33366 15.0003C4.65176 15.0003 1.66699 12.0156 1.66699 8.33366Z" fill="currentColor"/></symbol>
	<symbol id="XMark" xmlns="http://www.w3.org/2000/svg" fill="none" viewBox="0 0 24 24" stroke="currentColor"><path stroke-linecap="round" stroke-linejoin="round" d="M6 18L18 6M6 6l12 12" /></symbol>
	<symbol id="Plus" xmlns="http://www.w3.org/2000/svg" fill="none" viewBox="0 0 24 24" stroke="currentColor"><path stroke-linecap="round" stroke-linejoin="round" d="M12 4.5v15m7.5-7.5h-15" /></symbol>
	<symbol id="Minus" xmlns="http://www.w3.org/2000/svg" fill="none" viewBox="0 0 24 24" stroke="currentColor"><path stroke-linecap="round" stroke-linejoin="round" d="M19.5 12h-15" /></symbol>
	<symbol id="MapPin" xmlns="http://www.w3.org/2000/svg" fill="none" viewBox="0 0 24 24" stroke="currentColor"><path stroke-linecap="round" stroke-linejoin="round" d="M15 10.5a3 3 0 11-6 0 3 3 0 016 0z" /><path stroke-linecap="round" stroke-linejoin="round" d="M19.5 10.5c0 7.142-7.5 11.25-7.5 11.25S4.5 17.642 4.5 10.5a7.5 7.5 0 1115 0z" /></symbol>	
	<symbol id="Phone" xmlns="http://www.w3.org/2000/svg" fill="none" viewBox="0 0 24 24" stroke="currentColor"><path stroke-linecap="round" stroke-linejoin="round" d="M2.25 6.75c0 8.284 6.716 15 15 15h2.25a2.25 2.25 0 002.25-2.25v-1.372c0-.516-.351-.966-.852-1.091l-4.423-1.106c-.44-.11-.902.055-1.173.417l-.97 1.293c-.282.376-.769.542-1.21.38a12.035 12.035 0 01-7.143-7.143c-.162-.441.004-.928.38-1.21l1.293-.97c.363-.271.527-.734.417-1.173L6.963 3.102a1.125 1.125 0 00-1.091-.852H4.5A2.25 2.25 0 002.25 4.5v2.25z" /></symbol>
	<symbol id="Elo" xmlns="http://www.w3.org/2000/svg" viewBox="0 0 40 14" stroke="currentColor" fill="none"><path d="M6.57655 3.09309C6.98496 2.95495 7.4234 2.88288 7.87985 2.88288C9.87385 2.88288 11.5375 4.3003 11.9159 6.18018L14.7387 5.6036C14.0901 2.40841 11.2672 0 7.87985 0C7.10508 0 6.36033 0.126126 5.66364 0.36036L6.57655 3.09309Z" fill="currentColor"/><path d="M3.24323 12.2463L5.15314 10.0841C4.30029 9.32733 3.76576 8.22823 3.76576 6.997C3.76576 5.77178 4.30029 4.66667 5.15314 3.91592L3.24323 1.75977C1.79579 3.04505 0.882874 4.91292 0.882874 7.00301C0.882874 9.08709 1.79579 10.961 3.24323 12.2463Z" fill="currentColor"/><path d="M11.9159 7.82617C11.5315 9.70605 9.87387 11.1175 7.87988 11.1175C7.42342 11.1175 6.98498 11.0454 6.57057 10.9073L5.65765 13.64C6.35435 13.8742 7.1051 14.0003 7.87988 14.0003C11.2673 14.0003 14.0901 11.5979 14.7387 8.40275L11.9159 7.82617Z" fill="currentColor"/><path d="M24.1441 9.75962C23.6757 10.2161 23.045 10.4924 22.3484 10.4803C21.8679 10.4743 21.4234 10.3302 21.0511 10.0899L20.1141 11.5794C20.7568 11.9818 21.5075 12.2221 22.3243 12.2341C23.5075 12.2521 24.5886 11.7836 25.3754 11.0209L24.1441 9.75962ZM22.4505 3.68755C20.0961 3.65151 18.1502 5.5374 18.1141 7.89175C18.1021 8.77463 18.3544 9.60346 18.8048 10.2881L26.5405 6.97884C26.1081 5.12298 24.4505 3.72358 22.4505 3.68755ZM19.8859 8.22809C19.8739 8.13199 19.8679 8.02989 19.8679 7.92779C19.8919 6.5404 21.033 5.42929 22.4204 5.45331C23.1772 5.46532 23.8499 5.80767 24.3003 6.34821L19.8859 8.22809ZM28.973 1.76562V10.0119L30.4024 10.6065L29.7237 12.2341L28.3063 11.6455C27.988 11.5074 27.7718 11.2972 27.6096 11.0569C27.4535 10.8167 27.3333 10.4803 27.3333 10.0359V1.76562H28.973Z" fill="currentColor"/><path d="M34.1321 5.57925C34.3844 5.49516 34.6487 5.45312 34.9309 5.45312C36.1502 5.45312 37.1592 6.31798 37.3934 7.46513L39.1171 7.11078C38.7207 5.15882 36.997 3.69336 34.9309 3.69336C34.4565 3.69336 34 3.77144 33.5796 3.90958L34.1321 5.57925ZM32.0961 11.1588L33.2613 9.84351C32.7387 9.38105 32.4144 8.70837 32.4144 7.95762C32.4144 7.20687 32.7448 6.5342 33.2613 6.07774L32.0961 4.76243C31.2132 5.54321 30.6547 6.69036 30.6547 7.96363C30.6547 9.2369 31.2132 10.378 32.0961 11.1588ZM37.3934 8.46813C37.1592 9.61528 36.1442 10.4801 34.9309 10.4801C34.6547 10.4801 34.3844 10.4321 34.1321 10.348L33.5736 12.0177C34 12.1618 34.4565 12.2399 34.9309 12.2399C36.997 12.2399 38.7207 10.7744 39.1171 8.82249L37.3934 8.46813Z" fill="currentColor"/></symbol>
	<symbol id="Mastercard" xmlns="http://www.w3.org/2000/svg" viewBox="0 0 26 20" fill="none" stroke="currentColor"><g clip-path="url(#clip0_81_156)"><path d="M4.77191 19.9552V18.6263C4.77191 18.1167 4.46174 17.7846 3.95265 17.7846C3.68527 17.7846 3.39918 17.8734 3.19971 18.159C3.04463 17.9151 2.82538 17.7846 2.49116 17.7846C2.36689 17.7793 2.24323 17.8048 2.13124 17.8589C2.01926 17.913 1.92244 17.9941 1.84944 18.0948V17.8274H1.42859V19.9536H1.84944V18.737C1.84944 18.3627 2.07083 18.1836 2.381 18.1836C2.69116 18.1836 2.86816 18.383 2.86816 18.737V19.9552H3.28902V18.737C3.28902 18.3627 3.51041 18.1836 3.82057 18.1836C4.13073 18.1836 4.30773 18.383 4.30773 18.737V19.9552H4.77191ZM11.6821 17.8509H10.9067V17.2092H10.4869V17.8509H10.0441V18.2253H10.4869V19.2242C10.4869 19.7114 10.6639 19.9996 11.1954 19.9996C11.3968 19.9954 11.5941 19.9422 11.7703 19.8445L11.6371 19.4702C11.5177 19.5449 11.3791 19.5833 11.2382 19.5809C11.0168 19.5809 10.9061 19.4477 10.9061 19.2263V18.2082H11.6815V17.8536L11.6821 17.8509ZM15.6243 17.7846C15.5097 17.7821 15.3964 17.8093 15.2954 17.8637C15.1945 17.918 15.1093 17.9977 15.0484 18.0948V17.8274H14.6275V19.9536H15.0484V18.7595C15.0484 18.405 15.2254 18.1836 15.5136 18.1836C15.6109 18.1875 15.7074 18.2024 15.8013 18.2279L15.9345 17.829C15.8329 17.8034 15.729 17.7885 15.6243 17.7846ZM9.66656 18.006C9.44517 17.8509 9.13501 17.7846 8.80292 17.7846C8.27137 17.7846 7.93928 18.0285 7.93928 18.4493C7.93928 18.8039 8.18314 19.0028 8.64784 19.0697L8.86923 19.0916C9.11308 19.136 9.26816 19.2247 9.26816 19.3354C9.26816 19.4905 9.09116 19.6028 8.75854 19.6028C8.50456 19.608 8.2558 19.5303 8.04998 19.3814L7.82859 19.7135C8.13875 19.9349 8.51522 19.9809 8.73768 19.9809C9.358 19.9809 9.69009 19.6932 9.69009 19.2943C9.69009 18.9199 9.42271 18.7408 8.95907 18.6739L8.73768 18.652C8.53822 18.6301 8.36335 18.5632 8.36335 18.4306C8.36335 18.2755 8.54036 18.1632 8.78421 18.1632C9.05159 18.1632 9.31576 18.2739 9.44891 18.3402L9.66656 18.006ZM16.0896 18.8921C16.0896 19.5338 16.5104 19.9996 17.197 19.9996C17.5072 19.9996 17.7286 19.9333 17.95 19.7558L17.7286 19.4237C17.5718 19.5506 17.3768 19.6209 17.1751 19.6231C16.8008 19.6231 16.5104 19.3354 16.5104 18.9146C16.5104 18.4937 16.797 18.2082 17.1751 18.2082C17.3768 18.2104 17.5718 18.2807 17.7286 18.4076L17.95 18.0755C17.7286 17.8985 17.5072 17.8317 17.197 17.8317C16.5323 17.7873 16.0896 18.2525 16.0896 18.8948V18.8921ZM13.1216 17.7846C12.5013 17.7846 12.0805 18.2274 12.0805 18.8921C12.0805 19.5568 12.5232 19.9996 13.1655 19.9996C13.4779 20.0062 13.7831 19.9046 14.0291 19.7119L13.8077 19.4017C13.6298 19.5396 13.4125 19.6172 13.1874 19.6231C12.8997 19.6231 12.5896 19.4461 12.5457 19.0697H14.1184V18.8927C14.1184 18.2279 13.7195 17.7852 13.1216 17.7852V17.7846ZM13.0997 18.1836C13.4099 18.1836 13.6313 18.383 13.6532 18.7151H12.5019C12.5682 18.405 12.7692 18.1836 13.0997 18.1836ZM7.36335 18.8921V17.829H6.94249V18.0964C6.78741 17.8969 6.56816 17.7862 6.25586 17.7862C5.658 17.7862 5.21469 18.2515 5.21469 18.8937C5.21469 19.536 5.65747 20.0012 6.25586 20.0012C6.56602 20.0012 6.78741 19.8905 6.94249 19.691V19.9584H7.36335V18.8921ZM5.658 18.8921C5.658 18.4932 5.90185 18.1836 6.32271 18.1836C6.72164 18.1836 6.96442 18.4937 6.96442 18.8921C6.96442 19.313 6.69704 19.6007 6.32271 19.6007C5.90185 19.6226 5.658 19.2905 5.658 18.8921ZM22.0259 17.7846C21.9113 17.7821 21.798 17.8093 21.697 17.8637C21.5961 17.918 21.5109 17.9977 21.45 18.0948V17.8274H21.0291V19.9536H21.4495V18.7595C21.4495 18.405 21.6265 18.1836 21.9147 18.1836C22.012 18.1875 22.1085 18.2024 22.2024 18.2279L22.3355 17.829C22.234 17.8034 22.13 17.7885 22.0254 17.7846H22.0259ZM20.3869 18.8921V17.829H19.966V18.0964C19.8109 17.8969 19.5917 17.7862 19.2794 17.7862C18.6815 17.7862 18.2382 18.2515 18.2382 18.8937C18.2382 19.536 18.681 20.0012 19.2794 20.0012C19.5896 20.0012 19.8109 19.8905 19.966 19.691V19.9584H20.3869V18.8921ZM18.6815 18.8921C18.6815 18.4932 18.9254 18.1836 19.3462 18.1836C19.7452 18.1836 19.988 18.4937 19.988 18.8921C19.988 19.313 19.7206 19.6007 19.3462 19.6007C18.9254 19.6226 18.6815 19.2905 18.6815 18.8921ZM24.6618 18.8921V16.9873H24.2409V18.0948C24.0858 17.8953 23.8666 17.7846 23.5543 17.7846C22.9564 17.7846 22.5131 18.2499 22.5131 18.8921C22.5131 19.5344 22.9559 19.9996 23.5543 19.9996C23.8644 19.9996 24.0858 19.8889 24.2409 19.6894V19.9568H24.6618V18.8921ZM22.9564 18.8921C22.9564 18.4932 23.2003 18.1836 23.6211 18.1836C24.02 18.1836 24.2628 18.4937 24.2628 18.8921C24.2628 19.313 23.9954 19.6007 23.6211 19.6007C23.1997 19.6231 22.9559 19.291 22.9559 18.8921H22.9564Z" fill="currentColor"/><path d="M9.95478 7.97327C9.95505 6.76731 10.2281 5.57704 10.7536 4.49159C11.279 3.40613 12.0433 2.45361 12.989 1.70535C11.8128 0.780601 10.4002 0.205442 8.9126 0.045623C7.42499 -0.114196 5.92242 0.147775 4.57667 0.801588C3.23091 1.4554 2.09627 2.47468 1.30244 3.74289C0.508619 5.01111 0.0876465 6.47709 0.0876465 7.97327C0.0876465 9.46944 0.508619 10.9354 1.30244 12.2036C2.09627 13.4719 3.23091 14.4911 4.57667 15.1449C5.92242 15.7988 7.42499 16.0607 8.9126 15.9009C10.4002 15.7411 11.8128 15.1659 12.989 14.2412C12.0433 13.4929 11.279 12.5404 10.7536 11.4549C10.2281 10.3695 9.95505 9.17922 9.95478 7.97327Z" fill="currentColor"/><path d="M25.9019 7.97297C25.9029 9.46805 25.4832 10.9333 24.6907 12.201C23.8982 13.4688 22.7648 14.4879 21.4203 15.1418C20.0758 15.7957 18.5744 16.0579 17.0879 15.8986C15.6013 15.7393 14.1896 15.1648 13.0142 14.2409C13.9601 13.4928 14.7245 12.5403 15.25 11.4548C15.7755 10.3693 16.0485 9.17898 16.0485 7.97297C16.0485 6.76696 15.7755 5.5766 15.25 4.4911C14.7245 3.4056 13.9601 2.45312 13.0142 1.70506C14.1896 0.781104 15.6013 0.20662 17.0879 0.0473072C18.5744 -0.112005 20.0758 0.150287 21.4203 0.804186C22.7648 1.45808 23.8982 2.47719 24.6907 3.74493C25.4832 5.01268 25.9029 6.47789 25.9019 7.97297Z" fill="currentColor" fill-opacity="0.4"/><path fill-rule="evenodd" clip-rule="evenodd" d="M13.0141 1.70508H12.989C12.0432 2.45333 11.279 3.40585 10.7536 4.49131C10.2281 5.57677 9.95504 6.76704 9.95477 7.97299C9.95504 9.17894 10.2281 10.3692 10.7536 11.4547C11.279 12.5401 12.0433 13.4926 12.989 14.2409H13.0141C13.0141 14.2409 13.0141 14.2409 13.0141 14.2409C13.9601 13.4928 14.7245 12.5404 15.25 11.4549C15.7755 10.3694 16.0484 9.17899 16.0484 7.97299C16.0484 6.76698 15.7755 5.57661 15.25 4.49111C14.7245 3.40561 13.9601 2.45314 13.0141 1.70508Z" fill="currentColor" fill-opacity="0.6"/></g><defs><clipPath id="clip0_81_156"><rect width="25.8027" height="20" fill="white" transform="translate(0.0986328)"/></clipPath></defs></symbol>
	<symbol id="Visa" xmlns="http://www.w3.org/2000/svg" viewBox="0 0 40 12" fill="none" stroke="currentColor"><path d="M14.2514 11.8628L16.2325 0.237305H19.4012L17.4187 11.8628H14.2514Z" fill="currentColor"/><path d="M28.8667 0.488266C28.2389 0.252744 27.2552 0 26.0267 0C22.8956 0 20.6902 1.57674 20.6714 3.83653C20.6537 5.50698 22.2459 6.43886 23.4479 6.99494C24.6813 7.56486 25.0959 7.92824 25.09 8.437C25.0821 9.21631 24.105 9.57221 23.1942 9.57221C21.926 9.57221 21.2522 9.39601 20.2115 8.96208L19.8031 8.77728L19.3585 11.3797C20.0986 11.7043 21.4671 11.9854 22.8882 12C26.2191 12 28.3815 10.4413 28.4061 8.02807C28.4179 6.70556 27.5737 5.69921 25.7455 4.86948C24.638 4.33169 23.9597 3.97282 23.9669 3.42826C23.9669 2.94504 24.541 2.42833 25.7816 2.42833C26.8177 2.41223 27.5684 2.6382 28.1533 2.87372L28.4372 3.00787L28.8667 0.488266Z" fill="currentColor"/><path d="M37.0208 0.237305H34.5723C33.8138 0.237305 33.2461 0.444322 32.913 1.20137L28.2071 11.8552H31.5345C31.5345 11.8552 32.0785 10.4228 32.2015 10.1082C32.5651 10.1082 35.7976 10.1132 36.2597 10.1132C36.3545 10.5202 36.6452 11.8552 36.6452 11.8552H39.5855L37.0208 0.237305ZM33.136 7.74409C33.3981 7.07428 34.3985 4.49428 34.3985 4.49428C34.3798 4.52522 34.6587 3.82121 34.8186 3.38473L35.0328 4.38703C35.0328 4.38703 35.6395 7.16205 35.7663 7.74391H33.136V7.74409Z" fill="currentColor"/><path d="M0.45503 0.237305L0.414551 0.479138C1.66716 0.782359 2.78593 1.22123 3.76542 1.76717L6.57706 11.8441L9.92966 11.8404L14.9183 0.237305H11.5615L8.45929 8.16502L8.12885 6.55384C8.11337 6.50406 8.09654 6.4542 8.07932 6.40422L7.00087 1.21879C6.80912 0.482646 6.25282 0.262959 5.56461 0.237305H0.45503Z" fill="currentColor"/></symbol>		
	<symbol id="Pix" viewBox="0 0 512 512" xmlns="http://www.w3.org/2000/svg" fill="none" stroke="currentColor"> <defs/> <g fill="currentColor" fill-rule="evenodd"> <path d="M393.072 391.897c-20.082 0-38.969-7.81-53.176-22.02l-77.069-77.067c-5.375-5.375-14.773-5.395-20.17 0l-76.784 76.786c-14.209 14.207-33.095 22.019-53.179 22.019h-9.247l97.521 97.52c30.375 30.375 79.614 30.375 109.988 0l97.239-97.238h-15.123zm-105.049 74.327c-8.55 8.53-19.93 13.25-32.05 13.25h-.02c-12.12 0-23.522-4.721-32.05-13.25l-56.855-56.855c7.875-4.613 15.165-10.248 21.758-16.84l63.948-63.948 64.23 64.23c7.637 7.66 16.188 14.013 25.478 18.952l-54.439 54.46zM310.958 22.78c-30.374-30.374-79.613-30.374-109.988 0l-97.52 97.52h9.247c20.082 0 38.97 7.834 53.178 22.02l76.784 76.785c5.57 5.592 14.622 5.57 20.17 0l77.069-77.068c14.207-14.187 33.094-22.02 53.176-22.02h15.123l-97.239-97.237zm6.028 96.346l-64.23 64.23-63.97-63.97c-6.593-6.592-13.86-12.206-21.736-16.818l56.853-56.877c17.69-17.645 46.476-17.668 64.121 0l54.44 54.461c-9.292 4.961-17.842 11.315-25.479 18.974h.001z"/> <path d="M489.149 200.97l-58.379-58.377h-37.706c-13.838 0-27.394 5.635-37.185 15.426l-77.068 77.069c-7.202 7.18-16.623 10.77-26.067 10.77-9.443 0-18.885-3.59-26.066-10.77l-76.785-76.785c-9.792-9.814-23.346-15.427-37.207-15.427h-31.81L22.78 200.97c-30.374 30.375-30.374 79.614 0 109.988l58.095 58.074 31.81.021c13.86 0 27.416-5.635 37.208-15.426l76.784-76.764c13.925-13.947 38.208-13.924 52.133-.02l77.068 77.066c9.791 9.792 23.346 15.405 37.185 15.405h37.706l58.379-58.356c30.374-30.374 30.374-79.613 0-109.988zm-362.19 129.724c-3.763 3.786-8.942 5.917-14.273 5.917H94.302l-48.59-48.564c-17.689-17.69-17.689-46.476 0-64.143L94.3 175.296h18.385c5.331 0 10.51 2.154 14.295 5.918l74.74 74.74-74.761 74.74zm339.257-42.647l-48.848 48.87h-24.305c-5.309 0-10.508-2.155-14.251-5.92l-75.023-75.043 75.023-75.023c3.743-3.764 8.942-5.918 14.252-5.918h24.304l48.847 48.891c8.573 8.551 13.273 19.93 13.273 32.05 0 12.141-4.7 23.52-13.273 32.093z"/> </g> </symbol>
	<symbol id="Facebook" xmlns="http://www.w3.org/2000/svg" viewBox="0 0 24 24" stroke="currentColor" fill="none" stroke-linecap="round" stroke-linejoin="round"><path stroke="none" d="M0 0h24v24H0z" fill="none" /><path d="M7 10v4h3v7h4v-7h3l1 -4h-4v-2a1 1 0 0 1 1 -1h3v-4h-3a5 5 0 0 0 -5 5v2h-3" /></symbol>
	<symbol id="Instagram" xmlns="http://www.w3.org/2000/svg" viewBox="0 0 24 24" stroke="currentColor" fill="none" stroke-linecap="round" stroke-linejoin="round"><path stroke="none" d="M0 0h24v24H0z" fill="none" /><rect x="4" y="4" width="16" height="16" rx="4" /><circle cx="12" cy="12" r="3" /><line x1="16.5" y1="7.5" x2="16.5" y2="7.501" /></symbol>
	<symbol id="Tiktok" xmlns="http://www.w3.org/2000/svg" viewBox="0 0 24 24" stroke="currentColor" fill="none" stroke-linecap="round" stroke-linejoin="round"><path stroke="none" d="M0 0h24v24H0z" fill="none" /><path d="M9 12a4 4 0 1 0 4 4v-12a5 5 0 0 0 5 5" /></symbol>
	<symbol id="Truck" xmlns="http://www.w3.org/2000/svg"  viewBox="0 0 36 28" stroke="currentColor" fill="none"><path d="M14 22.333C14 24.174 12.5077 25.6663 10.6667 25.6663C8.82576 25.6663 7.33337 24.174 7.33337 22.333M14 22.333C14 20.4921 12.5077 18.9997 10.6667 18.9997C8.82576 18.9997 7.33337 20.4921 7.33337 22.333M14 22.333H24M7.33337 22.333H4.00004V15.6663M30.6667 22.333C30.6667 24.174 29.1743 25.6663 27.3334 25.6663C25.4924 25.6663 24 24.174 24 22.333M30.6667 22.333C30.6667 20.4921 29.1743 18.9997 27.3334 18.9997C25.4924 18.9997 24 20.4921 24 22.333M30.6667 22.333H34V12.333M2.33337 2.33301H20.6667V22.333M34 12.333H20.6667M34 12.333L29 3.99967H20.6667M4.00004 8.99967H10.6667" stroke-linecap="round" stroke-linejoin="round"/></symbol>
	<symbol id="Discount" xmlns="http://www.w3.org/2000/svg" viewBox="0 0 34 34" stroke="currentColor" fill="none"><path d="M12 21.9998L22 11.9998M13.6667 12.8332C13.6667 13.2934 13.2936 13.6665 12.8333 13.6665C12.3731 13.6665 12 13.2934 12 12.8332C12 12.3729 12.3731 11.9998 12.8333 11.9998C13.2936 11.9998 13.6667 12.3729 13.6667 12.8332ZM22 21.1665C22 21.6267 21.6269 21.9998 21.1667 21.9998C20.7064 21.9998 20.3333 21.6267 20.3333 21.1665C20.3333 20.7063 20.7064 20.3332 21.1667 20.3332C21.6269 20.3332 22 20.7063 22 21.1665ZM5.33334 8.99979C5.33334 8.02733 5.71965 7.0947 6.40728 6.40707C7.09491 5.71943 8.02755 5.33313 9.00001 5.33313H10.6667C11.6348 5.33257 12.5635 4.94913 13.25 4.26646L14.4167 3.09979C14.7574 2.75713 15.1625 2.4852 15.6087 2.29964C16.0549 2.11408 16.5334 2.01855 17.0167 2.01855C17.4999 2.01855 17.9784 2.11408 18.4246 2.29964C18.8708 2.4852 19.2759 2.75713 19.6167 3.09979L20.7833 4.26646C21.4699 4.94913 22.3985 5.33257 23.3667 5.33313H25.0333C26.0058 5.33313 26.9384 5.71943 27.6261 6.40707C28.3137 7.0947 28.7 8.02733 28.7 8.99979V10.6665C28.7006 11.6346 29.084 12.5633 29.7667 13.2498L30.9333 14.4165C31.276 14.7572 31.5479 15.1623 31.7335 15.6085C31.9191 16.0547 32.0146 16.5332 32.0146 17.0165C32.0146 17.4997 31.9191 17.9782 31.7335 18.4244C31.5479 18.8706 31.276 19.2757 30.9333 19.6165L29.7667 20.7831C29.084 21.4696 28.7006 22.3983 28.7 23.3665V25.0331C28.7 26.0056 28.3137 26.9382 27.6261 27.6259C26.9384 28.3135 26.0058 28.6998 25.0333 28.6998H23.3667C22.3985 28.7003 21.4699 29.0838 20.7833 29.7665L19.6167 30.9331C19.2759 31.2758 18.8708 31.5477 18.4246 31.7333C17.9784 31.9188 17.4999 32.0144 17.0167 32.0144C16.5334 32.0144 16.0549 31.9188 15.6087 31.7333C15.1625 31.5477 14.7574 31.2758 14.4167 30.9331L13.25 29.7665C12.5635 29.0838 11.6348 28.7003 10.6667 28.6998H9.00001C8.02755 28.6998 7.09491 28.3135 6.40728 27.6259C5.71965 26.9382 5.33334 26.0056 5.33334 25.0331V23.3665C5.33279 22.3983 4.94934 21.4696 4.26667 20.7831L3.10001 19.6165C2.75734 19.2757 2.48541 18.8706 2.29985 18.4244C2.11429 17.9782 2.01877 17.4997 2.01877 17.0165C2.01877 16.5332 2.11429 16.0547 2.29985 15.6085C2.48541 15.1623 2.75734 14.7572 3.10001 14.4165L4.26667 13.2498C4.94934 12.5633 5.33279 11.6346 5.33334 10.6665V8.99979Z" stroke-linecap="round" stroke-linejoin="round"/></symbol>
	<symbol id="Return" xmlns="http://www.w3.org/2000/svg" viewBox="0 0 34 30" stroke="currentColor" fill="none"><path d="M32 6.66699H2M32 6.66699L27 11.667M32 6.66699L27 1.66699M7 28.3337L2 23.3337M2 23.3337L7 18.3337M2 23.3337H32" stroke-linecap="round" stroke-linejoin="round"/></symbol>			
	<symbol id="CreditCard" xmlns="http://www.w3.org/2000/svg" viewBox="0 0 34 28" stroke="currentColor" fill="none"><path d="M2 10.6663H32M8.66667 18.9997H8.68333M15.3333 18.9997H18.6667M7 2.33301H27C29.7614 2.33301 32 4.57158 32 7.33301V20.6663C32 23.4278 29.7614 25.6663 27 25.6663H7C4.23858 25.6663 2 23.4278 2 20.6663V7.33301C2 4.57158 4.23858 2.33301 7 2.33301Z" stroke-linecap="round" stroke-linejoin="round"/></symbol>		
	<symbol id="Deco" xmlns="http://www.w3.org/2000/svg" viewBox="0 0 58 20" stroke="currentColor" fill="none"><path d="M49.5359 16.9432C47.3666 16.9432 46.9948 14.8019 47.6797 12.7178C48.2221 11.0615 49.5066 9.31991 51.4201 9.31991C53.676 9.31991 53.9039 11.6038 53.247 13.6026C52.6753 15.3162 51.3908 16.9432 49.5359 16.9432ZM48.879 19.9973C52.6473 19.9973 56.0159 17.9133 57.3578 14.1449C58.7569 10.1767 57.1859 6.2085 52.0477 6.2085C47.9369 6.2085 44.7962 8.77758 43.5969 12.1755C42.2551 16.0011 43.7115 19.9973 48.879 19.9973ZM36.3747 19.9973C37.8591 19.9973 39.3729 19.6829 40.4282 19.2271C40.8 18.1998 40.828 17.2004 40.5428 16.201C39.8006 16.4862 38.7732 16.7727 37.7165 16.7727C34.861 16.7727 34.6051 14.6606 35.2048 12.8617C35.8617 10.9496 37.574 9.40786 40.287 9.40786C41.0012 9.40786 41.6861 9.52246 42.1138 9.77963C42.856 8.78025 43.2838 7.78086 43.3704 6.7535C42.7428 6.46834 41.6861 6.21117 40.3163 6.21117C35.863 6.21117 32.3505 8.80956 31.0953 12.406C29.896 15.8039 30.8101 20 36.3774 20L36.3747 19.9973ZM21.0442 11.8037C21.8143 10.0901 23.0136 9.09206 24.5846 9.09206C25.9838 9.09206 26.2116 9.86225 25.9838 10.4619C25.6413 11.2894 24.47 11.8037 21.0442 11.8037ZM22.2714 19.9973C23.7278 19.9973 25.7826 19.7122 27.4962 18.8554C27.7813 17.9133 27.7534 16.9712 27.4389 15.9998C26.3542 16.5421 24.8405 16.8566 23.4707 16.8566C21.4439 16.8566 20.3299 16.1997 20.3592 14.5447C25.8972 14.6873 28.7807 13.6879 29.7228 11.2334C30.6649 8.7496 29.0379 6.2085 25.1829 6.2085C21.0721 6.2085 18.046 9.14935 16.932 12.3181C15.7621 15.6867 16.5043 19.9973 22.2701 19.9973H22.2714ZM5.72293 19.9973C9.52059 19.9973 11.6806 18.2557 14.1924 12.9177C15.5622 9.97684 16.7335 7.09329 18.0753 4.23905L19.6743 4.7534C20.1021 4.89598 20.3313 4.6388 20.1314 4.23905L18.1899 0.270827C18.0473 -0.0143302 17.7329 -0.0436454 17.533 0.0429678L12.708 1.86984C12.3082 2.01242 12.3362 2.38419 12.7359 2.49745L14.1631 2.95451C12.9931 5.6102 11.5367 9.60641 10.3654 12.1182C9.05155 14.9165 8.39595 16.8859 6.16933 16.8859C3.9427 16.8859 3.57093 15.1443 4.51301 12.6605C5.59768 9.77697 7.42455 8.92016 9.5086 9.51979C10.0802 8.72028 10.508 7.52103 10.6785 6.43636C10.0789 6.26447 9.36469 6.2085 8.76639 6.2085C5.3978 6.2085 2.05719 7.95009 0.687373 11.6038C-1.0822 16.3143 0.554122 19.9973 5.7216 19.9973H5.72293Z" fill="currentColor"/></symbol>
	<symbol id="Discord" xmlns="http://www.w3.org/2000/svg" viewBox="0 0 127.14 96.36" stroke="currentColor" fill="none"><g id="图层_2" data-name="图层 2"><g id="Discord_Logos" data-name="Discord Logos"><g id="Discord_Logo_-_Large_-_White" data-name="Discord Logo - Large - White"><path class="cls-1" d="M107.7,8.07A105.15,105.15,0,0,0,81.47,0a72.06,72.06,0,0,0-3.36,6.83A97.68,97.68,0,0,0,49,6.83,72.37,72.37,0,0,0,45.64,0,105.89,105.89,0,0,0,19.39,8.09C2.79,32.65-1.71,56.6.54,80.21h0A105.73,105.73,0,0,0,32.71,96.36,77.7,77.7,0,0,0,39.6,85.25a68.42,68.42,0,0,1-10.85-5.18c.91-.66,1.8-1.34,2.66-2a75.57,75.57,0,0,0,64.32,0c.87.71,1.76,1.39,2.66,2a68.68,68.68,0,0,1-10.87,5.19,77,77,0,0,0,6.89,11.1A105.25,105.25,0,0,0,126.6,80.22h0C129.24,52.84,122.09,29.11,107.7,8.07ZM42.45,65.69C36.18,65.69,31,60,31,53s5-12.74,11.43-12.74S54,46,53.89,53,48.84,65.69,42.45,65.69Zm42.24,0C78.41,65.69,73.25,60,73.25,53s5-12.74,11.44-12.74S96.23,46,96.12,53,91.08,65.69,84.69,65.69Z"/></g></g></g></symbol>
	<symbol id="FilterList" xmlns="http://www.w3.org/2000/svg" viewBox="0 0 16 16" fill="none"><path d="M6.66667 12H9.33333V10.6667H6.66667V12ZM2 4V5.33333H14V4H2ZM4 8.66667H12V7.33333H4V8.66667Z" fill="currentColor"/></symbol>
	<symbol id="ChevronUp" xmlns="http://www.w3.org/2000/svg" viewBox="0 0 16 16" stroke="currentColor" fill="none"><path fill-rule="evenodd" clip-rule="evenodd" d="M7.52851 5.52827C7.78886 5.26792 8.21097 5.26792 8.47132 5.52827L12.4713 9.52827C12.7317 9.78862 12.7317 10.2107 12.4713 10.4711C12.211 10.7314 11.7889 10.7314 11.5285 10.4711L7.99992 6.94248L4.47132 10.4711C4.21097 10.7314 3.78886 10.7314 3.52851 10.4711C3.26816 10.2107 3.26816 9.78862 3.52851 9.52827L7.52851 5.52827Z" fill="black"/></symbol>
	<symbol id="Trash" width="20" height="20" viewBox="0 0 20 20" fill="none" xmlns="http://www.w3.org/2000/svg"><path fill-rule="evenodd" clip-rule="evenodd" d="M7.15482 2.15483C7.46738 1.84227 7.89131 1.66667 8.33333 1.66667H11.6667C12.1087 1.66667 12.5326 1.84227 12.8452 2.15483C13.1577 2.46739 13.3333 2.89131 13.3333 3.33334V5H15.8236C15.8295 4.99994 15.8353 4.99994 15.8412 5H16.6667C17.1269 5 17.5 5.3731 17.5 5.83334C17.5 6.29357 17.1269 6.66667 16.6667 6.66667H16.6001L15.833 15.8715C15.8231 16.5207 15.5609 17.1413 15.1011 17.6011C14.6323 18.0699 13.9964 18.3333 13.3333 18.3333H6.66667C6.00362 18.3333 5.36774 18.0699 4.8989 17.6011C4.43906 17.1413 4.17685 16.5207 4.16696 15.8715L3.39989 6.66667H3.33333C2.8731 6.66667 2.5 6.29357 2.5 5.83334C2.5 5.3731 2.8731 5 3.33333 5H4.15878C4.16467 4.99994 4.17055 4.99994 4.17641 5H6.66667V3.33334C6.66667 2.89131 6.84226 2.46739 7.15482 2.15483ZM5.07233 6.66667L5.83045 15.7641C5.83237 15.7871 5.83333 15.8102 5.83333 15.8333C5.83333 16.0543 5.92113 16.2663 6.07741 16.4226C6.23369 16.5789 6.44565 16.6667 6.66667 16.6667H13.3333C13.5543 16.6667 13.7663 16.5789 13.9226 16.4226C14.0789 16.2663 14.1667 16.0543 14.1667 15.8333C14.1667 15.8102 14.1676 15.7871 14.1695 15.7641L14.9277 6.66667H5.07233ZM11.6667 5H8.33333V3.33334H11.6667V5ZM8.33333 8.33334C8.79357 8.33334 9.16667 8.70643 9.16667 9.16667V14.1667C9.16667 14.6269 8.79357 15 8.33333 15C7.8731 15 7.5 14.6269 7.5 14.1667V9.16667C7.5 8.70643 7.8731 8.33334 8.33333 8.33334ZM11.6667 8.33334C12.1269 8.33334 12.5 8.70643 12.5 9.16667V14.1667C12.5 14.6269 12.1269 15 11.6667 15C11.2064 15 10.8333 14.6269 10.8333 14.1667V9.16667C10.8333 8.70643 11.2064 8.33334 11.6667 8.33334Z" fill="currentColor"/></symbol>
	<symbol id="WhatsApp"  xmlns="http://www.w3.org/2000/svg" viewBox="0 0 18 18" fill="none" ><path fill-rule="evenodd" clip-rule="evenodd" d="M13.333 3.94275C12.0977 2.88909 10.5203 2.32246 8.89688 2.34921C7.27345 2.37596 5.71558 2.99425 4.51564 4.08804C3.3157 5.18184 2.55617 6.67594 2.3796 8.28996C2.20302 9.90398 2.62153 11.527 3.5566 12.8543C3.72398 13.0919 3.75547 13.3996 3.63972 13.6661L2.88341 15.408L5.56246 14.9305C5.73665 14.8995 5.9162 14.9247 6.07512 15.0025C7.53336 15.7165 9.20204 15.8737 10.768 15.4448C12.334 15.0158 13.6896 14.0301 14.5804 12.6727C15.4712 11.3152 15.836 9.67933 15.6064 8.07201C15.3767 6.46468 14.5684 4.99641 13.333 3.94275ZM8.86942 0.682773C10.8987 0.649334 12.8704 1.35761 14.4146 2.67469C15.9588 3.99177 16.9692 5.8271 17.2563 7.83626C17.5433 9.84542 17.0873 11.8903 15.9738 13.5871C14.8603 15.2839 13.1658 16.516 11.2083 17.0522C9.34061 17.5638 7.35601 17.4083 5.59455 16.6177L1.64654 17.3213C1.34428 17.3752 1.03687 17.2585 0.846507 17.0176C0.656144 16.7767 0.613663 16.4506 0.735949 16.169L1.93091 13.417C0.947723 11.8367 0.519412 9.96793 0.722814 8.1087C0.943534 6.09118 1.89294 4.22355 3.39287 2.85631C4.8928 1.48907 6.84013 0.716212 8.86942 0.682773ZM6.03312 5.61685C6.26754 5.38243 6.58548 5.25073 6.917 5.25073C7.24852 5.25073 7.56646 5.38243 7.80088 5.61685C8.03531 5.85127 8.167 6.16921 8.167 6.50073V7.33407C8.167 7.66558 8.03531 7.98353 7.80088 8.21795C7.71659 8.30224 7.62149 8.37326 7.51885 8.42964C7.68255 8.89999 7.95113 9.33224 8.30998 9.69109C8.66883 10.0499 9.10107 10.3185 9.57143 10.4822C9.62781 10.3796 9.69882 10.2845 9.78312 10.2002C10.0175 9.96576 10.3355 9.83407 10.667 9.83407H11.5003C11.8319 9.83407 12.1498 9.96576 12.3842 10.2002C12.6186 10.4346 12.7503 10.7525 12.7503 11.0841C12.7503 11.4156 12.6186 11.7335 12.3842 11.9679C12.1498 12.2024 11.8319 12.3341 11.5003 12.3341H10.667C9.34092 12.3341 8.06915 11.8073 7.13147 10.8696C6.19378 9.93192 5.667 8.66015 5.667 7.33407V6.50073C5.667 6.16921 5.79869 5.85127 6.03312 5.61685Z" fill="currentColor"/></symbol>
	<symbol id="ArrowsPointingOut" xmlns="http://www.w3.org/2000/svg" fill="none" viewBox="0 0 24 24"><path stroke-linecap="round" stroke-linejoin="round" d="M3.75 3.75v4.5m0-4.5h4.5m-4.5 0L9 9M3.75 20.25v-4.5m0 4.5h4.5m-4.5 0L9 15M20.25 3.75h-4.5m4.5 0v4.5m0-4.5L15 9m5.25 11.25h-4.5m4.5 0v-4.5m0 4.5L15 15" /></symbol>
	<symbol id="NewsPageArrowRight" width="21" height="38" viewBox="0 0 21 38" fill="none" xmlns="http://www.w3.org/2000/svg"><path opacity="0.5" fill-rule="evenodd" clip-rule="evenodd" d="M0.683418 36.6498C1.59464 37.5611 3.07203 37.5611 3.98325 36.6498L20.3166 20.3165C21.2278 19.4053 21.2278 17.9279 20.3166 17.0167C19.4054 16.1054 17.928 16.1054 17.0167 17.0167L0.683418 33.35C-0.227805 34.2612 -0.227805 35.7386 0.683418 36.6498Z" fill="white"/><path fill-rule="evenodd" clip-rule="evenodd" d="M0.683417 0.683295C-0.227806 1.59452 -0.227806 3.0719 0.683418 3.98313L17.0167 20.3165C17.928 21.2277 19.4054 21.2277 20.3166 20.3165C21.2278 19.4052 21.2278 17.9278 20.3166 17.0166L3.98325 0.683295C3.07203 -0.227928 1.59464 -0.227928 0.683417 0.683295Z" fill="white"/></symbol>
	<symbol id="DownloadIcon" width="22" height="22" viewBox="0 0 22 22" fill="none" xmlns="http://www.w3.org/2000/svg"><path opacity="0.5" d="M14.417 18.6878H7.58366C7.35712 18.6878 7.13986 18.5978 6.97967 18.4376C6.81948 18.2775 6.72949 18.0602 6.72949 17.8337C6.72949 17.6071 6.81948 17.3899 6.97967 17.2297C7.13986 17.0695 7.35712 16.9795 7.58366 16.9795H14.417C14.6435 16.9795 14.8608 17.0695 15.021 17.2297C15.1812 17.3899 15.2712 17.6071 15.2712 17.8337C15.2712 18.0602 15.1812 18.2775 15.021 18.4376C14.8608 18.5978 14.6435 18.6878 14.417 18.6878Z" fill="white"/><path d="M14.5955 12.8877L11.6059 15.8773C11.5261 15.9565 11.4314 16.0191 11.3273 16.0616C11.2233 16.1041 11.1118 16.1256 10.9994 16.125C10.887 16.1256 10.7756 16.1041 10.6715 16.0616C10.5674 16.0191 10.4728 15.9565 10.393 15.8773L7.40339 12.8877C7.28486 12.7676 7.20458 12.6151 7.17265 12.4494C7.14073 12.2837 7.1586 12.1122 7.22401 11.9567C7.28809 11.8007 7.39691 11.6672 7.53675 11.5729C7.6766 11.4787 7.84121 11.4279 8.00984 11.4271H10.1453V4.16667C10.1453 3.94013 10.2353 3.72287 10.3954 3.56268C10.5556 3.40249 10.7729 3.3125 10.9994 3.3125C11.226 3.3125 11.4432 3.40249 11.6034 3.56268C11.7636 3.72287 11.8536 3.94013 11.8536 4.16667V11.4271H13.989C14.1591 11.4262 14.3256 11.4762 14.4671 11.5705C14.6086 11.6649 14.7188 11.7993 14.7834 11.9567C14.8477 12.113 14.8642 12.285 14.8308 12.4507C14.7973 12.6165 14.7154 12.7685 14.5955 12.8877Z" fill="white"/></symbol>
	<symbol id="PinkMinusSquare" width="20" height="22" viewBox="0 0 20 22" fill="none" xmlns="http://www.w3.org/2000/svg"><path opacity="0.5" d="M14 0.541016H6C2.68629 0.541016 0 3.35165 0 6.81875V15.1891C0 18.6562 2.68629 21.4668 6 21.4668H14C17.3137 21.4668 20 18.6562 20 15.1891V6.81875C20 3.35165 17.3137 0.541016 14 0.541016Z" fill="#FB2089"/><path d="M13.5 12.0506H6.5C6.23478 12.0506 5.98043 11.9404 5.79289 11.7441C5.60536 11.5479 5.5 11.2818 5.5 11.0043C5.5 10.7268 5.60536 10.4607 5.79289 10.2645C5.98043 10.0682 6.23478 9.95801 6.5 9.95801H13.5C13.7652 9.95801 14.0196 10.0682 14.2071 10.2645C14.3946 10.4607 14.5 10.7268 14.5 11.0043C14.5 11.2818 14.3946 11.5479 14.2071 11.7441C14.0196 11.9404 13.7652 12.0506 13.5 12.0506Z" fill="#FB2089"/></symbol>
	<symbol id="PinkPlusSquare" width="20" height="20" viewBox="0 0 20 20" fill="none" xmlns="http://www.w3.org/2000/svg"><path opacity="0.5" d="M20 6V14C20 15.5913 19.3679 17.1174 18.2426 18.2426C17.1174 19.3679 15.5913 20 14 20H6C4.4087 20 2.88258 19.3679 1.75736 18.2426C0.632141 17.1174 0 15.5913 0 14V6C0 4.4087 0.632141 2.88258 1.75736 1.75736C2.88258 0.63214 4.4087 0 6 0H14C15.5913 0 17.1174 0.63214 18.2426 1.75736C19.3679 2.88258 20 4.4087 20 6Z" fill="white"/><path d="M14.5 10C14.5 10.2652 14.3946 10.5196 14.2071 10.7071C14.0196 10.8946 13.7652 11 13.5 11H11V13.5C11 13.7652 10.8946 14.0196 10.7071 14.2071C10.5196 14.3946 10.2652 14.5 10 14.5C9.73478 14.5 9.48043 14.3946 9.29289 14.2071C9.10536 14.0196 9 13.7652 9 13.5V11H6.5C6.23478 11 5.98043 10.8946 5.79289 10.7071C5.60536 10.5196 5.5 10.2652 5.5 10C5.5 9.73478 5.60536 9.48043 5.79289 9.29289C5.98043 9.10536 6.23478 9 6.5 9H9V6.5C9 6.23478 9.10536 5.98043 9.29289 5.79289C9.48043 5.60536 9.73478 5.5 10 5.5C10.2652 5.5 10.5196 5.60536 10.7071 5.79289C10.8946 5.98043 11 6.23478 11 6.5V9H13.5C13.7652 9 14.0196 9.10536 14.2071 9.29289C14.3946 9.48043 14.5 9.73478 14.5 10Z" fill="white"/></symbol>
	<symbol id="UserLoginIcon" width="14" height="20" viewBox="0 0 14 20" fill="none" xmlns="http://www.w3.org/2000/svg"><path d="M7 20C10.866 20 14 17.7614 14 15C14 12.2386 10.866 10 7 10C3.13401 10 0 12.2386 0 15C0 17.7614 3.13401 20 7 20Z" fill="black" fill-opacity="0.5"/><path opacity="0.4" d="M7 9C9.48528 9 11.5 6.98528 11.5 4.5C11.5 2.01472 9.48528 0 7 0C4.51472 0 2.5 2.01472 2.5 4.5C2.5 6.98528 4.51472 9 7 9Z" fill="black" fill-opacity="0.5"/></symbol>
	<symbol id="LockIcon" width="18" height="20" viewBox="0 0 18 20" fill="none" xmlns="http://www.w3.org/2000/svg"><path opacity="0.5" d="M14 6.1V5C14 3.67392 13.4732 2.40215 12.5356 1.46447C11.5979 0.526784 10.3261 0 9 0C7.67392 0 6.40216 0.526784 5.46448 1.46447C4.5268 2.40215 4 3.67392 4 5V6.1C2.87064 6.33053 1.85562 6.94418 1.12671 7.8371C0.397799 8.73001 -0.000235151 9.84735 1.04224e-07 11V15C1.04224e-07 16.3261 0.526796 17.5979 1.46448 18.5355C2.40216 19.4732 3.67392 20 5 20H13C14.3261 20 15.5979 19.4732 16.5356 18.5355C17.4732 17.5979 18 16.3261 18 15V11C18.0002 9.84735 17.6022 8.73001 16.8733 7.8371C16.1444 6.94418 15.1294 6.33053 14 6.1ZM6 5C6 4.20435 6.31608 3.44129 6.87869 2.87868C7.4413 2.31607 8.20435 2 9 2C9.79565 2 10.5587 2.31607 11.1213 2.87868C11.6839 3.44129 12 4.20435 12 5V6H6V5Z" fill="black" fill-opacity="0.5"/><path d="M9 15C8.73478 15 8.48044 14.8946 8.29291 14.7071C8.10537 14.5196 8 14.2652 8 14V12C8 11.7348 8.10537 11.4804 8.29291 11.2929C8.48044 11.1054 8.73478 11 9 11C9.26522 11 9.51959 11.1054 9.70712 11.2929C9.89466 11.4804 10 11.7348 10 12V14C10 14.2652 9.89466 14.5196 9.70712 14.7071C9.51959 14.8946 9.26522 15 9 15Z" fill="black" fill-opacity="0.5"/></symbol>
	<symbol id="LoginBtnArrow" width="16" height="12" viewBox="0 0 16 12" fill="none" xmlns="http://www.w3.org/2000/svg"><path d="M9.66406 1L14.6641 6L9.66406 11" stroke="white" stroke-width="1.66667" stroke-linecap="round" stroke-linejoin="round"/><path d="M14.6654 6L1.33203 6" stroke="white" stroke-width="1.66667" stroke-linecap="round" stroke-linejoin="round"/></symbol>
	<symbol id="VerifiedIcon" width="24" height="24" viewBox="0 0 24 24" fill="none" xmlns="http://www.w3.org/2000/svg"><path d="M10.3323 3.74156C10.5429 3.50811 10.8002 3.32148 11.0875 3.19374C11.3748 3.066 11.6856 3 12 3C12.3144 3 12.6252 3.066 12.9125 3.19374C13.1998 3.32148 13.4571 3.50811 13.6677 3.74156L14.1571 4.28114C14.3805 4.52405 14.6548 4.71452 14.9604 4.8389C15.266 4.96327 15.5953 5.01848 15.9247 5.00056H16.6637C16.9723 4.98938 17.2798 5.04194 17.5672 5.15498C17.8546 5.26803 18.1156 5.43912 18.3339 5.65758C18.5523 5.87604 18.7232 6.13718 18.8362 6.4247C18.9492 6.71223 19.0017 7.01997 18.9906 7.32871V8.06813C18.9739 8.3985 19.0306 8.72847 19.1567 9.03428C19.2828 9.34009 19.475 9.61415 19.7196 9.83672L20.2588 10.3263C20.4922 10.5371 20.6787 10.7946 20.8064 11.082C20.934 11.3694 21 11.6805 21 11.995C21 12.3095 20.934 12.6206 20.8064 12.908C20.6787 13.1955 20.4922 13.4529 20.2588 13.6637L19.7196 14.1533C19.475 14.3759 19.2828 14.6499 19.1567 14.9557C19.0306 15.2615 18.9739 15.5915 18.9906 15.9219V16.6613C19.0017 16.97 18.9492 17.2778 18.8362 17.5653C18.7232 17.8528 18.5523 18.114 18.3339 18.3324C18.1156 18.5509 17.8546 18.722 17.5672 18.835C17.2798 18.9481 16.9723 19.0006 16.6637 18.9894H15.9247C15.5945 18.9728 15.2647 19.0295 14.9591 19.1557C14.6534 19.2818 14.3795 19.4741 14.1571 19.7189L13.6677 20.2584C13.4571 20.4919 13.1998 20.6785 12.9125 20.8063C12.6252 20.934 12.3144 21 12 21C11.6856 21 11.3748 20.934 11.0875 20.8063C10.8002 20.6785 10.5429 20.4919 10.3323 20.2584L9.84291 19.7189C9.62046 19.4741 9.34656 19.2818 9.04092 19.1557C8.73528 19.0295 8.4055 18.9728 8.0753 18.9894H7.3363C7.02772 19.0006 6.72016 18.9481 6.43279 18.835C6.14542 18.722 5.88443 18.5509 5.66609 18.3324C5.44775 18.114 5.27675 17.8528 5.16378 17.5653C5.0508 17.2778 4.99826 16.97 5.00944 16.6613V15.9219C5.0261 15.5915 4.96936 15.2615 4.8433 14.9557C4.71725 14.6499 4.52501 14.3759 4.28042 14.1533L3.74115 13.6637C3.50782 13.4529 3.3213 13.1955 3.19363 12.908C3.06596 12.6206 3 12.3095 3 11.995C3 11.6805 3.06596 11.3694 3.19363 11.082C3.3213 10.7946 3.50782 10.5371 3.74115 10.3263L4.28042 9.83672C4.52501 9.61415 4.71725 9.34009 4.8433 9.03428C4.96936 8.72847 5.0261 8.3985 5.00944 8.06813V7.32871C4.99826 7.01997 5.0508 6.71223 5.16378 6.4247C5.27675 6.13718 5.44775 5.87604 5.66609 5.65758C5.88443 5.43912 6.14542 5.26803 6.43279 5.15498C6.72016 5.04194 7.02772 4.98938 7.3363 5.00056H8.0753C8.4055 5.01723 8.73528 4.96046 9.04092 4.83434C9.34656 4.70821 9.62046 4.51587 9.84291 4.27114L10.3323 3.74156Z" stroke="#7B7B7B" stroke-width="2" stroke-linecap="round" stroke-linejoin="round"/><path d="M9.01172 12.002L11.0117 14.002L15.0117 10.002" stroke="#7B7B7B" stroke-width="2" stroke-linecap="round" stroke-linejoin="round"/></symbol>
	<symbol id="CheckInputIcon" width="24" height="24" viewBox="0 0 24 24" fill="none" xmlns="http://www.w3.org/2000/svg"><path d="M5 13L9 17L19 7" stroke="#7B7B7B" stroke-width="2" stroke-linecap="round" stroke-linejoin="round"/></symbol>
	<symbol id="OrangePlusSquare" width="20" height="21" viewBox="0 0 20 21" fill="none" xmlns="http://www.w3.org/2000/svg"><path opacity="0.5" d="M17.3346 5.6665V12.3332C17.3346 13.6593 16.8079 14.931 15.8702 15.8687C14.9325 16.8064 13.6607 17.3332 12.3346 17.3332H5.66797C4.34189 17.3332 3.07012 16.8064 2.13243 15.8687C1.19475 14.931 0.667969 13.6593 0.667969 12.3332V5.6665C0.667969 4.34042 1.19475 3.06865 2.13243 2.13097C3.07012 1.19329 4.34189 0.666504 5.66797 0.666504H12.3346C13.6607 0.666504 14.9325 1.19329 15.8702 2.13097C16.8079 3.06865 17.3346 4.34042 17.3346 5.6665Z" fill="white"/><path d="M12.752 8.99976C12.752 9.22077 12.6642 9.43273 12.5079 9.58901C12.3516 9.74529 12.1396 9.83309 11.9186 9.83309H9.83529V11.9164C9.83529 12.1374 9.74749 12.3494 9.59121 12.5057C9.43493 12.662 9.22297 12.7498 9.00195 12.7498C8.78094 12.7498 8.56898 12.662 8.4127 12.5057C8.25642 12.3494 8.16862 12.1374 8.16862 11.9164V9.83309H6.08529C5.86427 9.83309 5.65231 9.74529 5.49603 9.58901C5.33975 9.43273 5.25195 9.22077 5.25195 8.99976C5.25195 8.77874 5.33975 8.56678 5.49603 8.4105C5.65231 8.25422 5.86427 8.16642 6.08529 8.16642H8.16862V6.08309C8.16862 5.86208 8.25642 5.65011 8.4127 5.49383C8.56898 5.33755 8.78094 5.24976 9.00195 5.24976C9.22297 5.24976 9.43493 5.33755 9.59121 5.49383C9.74749 5.65011 9.83529 5.86208 9.83529 6.08309V8.16642H11.9186C12.1396 8.16642 12.3516 8.25422 12.5079 8.4105C12.6642 8.56678 12.752 8.77874 12.752 8.99976Z" fill="white"/></symbol>
	<symbol id="OrangeMinusSquare" width="20" height="21" viewBox="0 0 20 21" fill="none" xmlns="http://www.w3.org/2000/svg"><path opacity="0.5" d="M14 0.5H6C2.68629 0.5 0 3.18629 0 6.5V14.5C0 17.8137 2.68629 20.5 6 20.5H14C17.3137 20.5 20 17.8137 20 14.5V6.5C20 3.18629 17.3137 0.5 14 0.5Z" fill="#FF8461"/><path d="M13.4531 11.4934H6.45312C6.18791 11.4934 5.93355 11.3932 5.74602 11.2148C5.55848 11.0364 5.45312 10.7945 5.45312 10.5422C5.45312 10.29 5.55848 10.048 5.74602 9.86966C5.93355 9.69128 6.18791 9.59106 6.45312 9.59106H13.4531C13.7183 9.59106 13.9727 9.69128 14.1602 9.86966C14.3478 10.048 14.4531 10.29 14.4531 10.5422C14.4531 10.7945 14.3478 11.0364 14.1602 11.2148C13.9727 11.3932 13.7183 11.4934 13.4531 11.4934Z" fill="#FF8461"/></symbol>
	<symbol id="FacebookFooterIcon" viewBox="0 0 24 24" fill="none" xmlns="http://www.w3.org/2000/svg"><path d="M12.9241 21.2288V21.332L13.0269 21.3227C15.3395 21.1117 17.4858 20.0308 19.0321 18.2982C20.5784 16.5657 21.4094 14.3108 21.3571 11.9892C21.3049 9.6676 20.3733 7.45237 18.7506 5.79117C17.128 4.12997 14.9352 3.14666 12.6155 3.03996C10.2957 2.93325 8.02194 3.71109 6.25362 5.21631C4.4853 6.72152 3.35428 8.84187 3.08911 11.1489C2.82395 13.4559 3.44442 15.7776 4.82513 17.6447C6.20584 19.5119 8.24384 20.7853 10.5273 21.2077L10.6387 21.2283V21.115V15.0804V14.9861H10.5445H8.48288C8.17982 14.9861 7.88917 14.8658 7.67488 14.6515C7.46058 14.4372 7.34019 14.1465 7.34019 13.8435C7.34019 13.5404 7.46058 13.2497 7.67488 13.0354C7.88917 12.8211 8.17982 12.7008 8.48288 12.7008H10.5445H10.6387V12.6065V10.9408C10.6387 9.50154 11.0649 8.39951 11.8021 7.65583C12.5393 6.91226 13.6032 6.51605 14.9051 6.51605C15.3462 6.51605 15.8886 6.58071 16.4245 6.85641C16.6863 6.99894 16.882 7.23814 16.97 7.52299C17.058 7.80817 17.0309 8.11647 16.8946 8.38197C16.7583 8.64747 16.5235 8.84909 16.2404 8.94373C15.9574 9.03837 15.6485 9.0185 15.3799 8.88839L15.38 8.88833L15.3767 8.8869C15.2275 8.82145 15.065 8.79217 14.9023 8.80145C14.0718 8.80198 13.644 9.04541 13.425 9.2661C13.2055 9.48561 12.9241 9.95711 12.9241 10.9408V12.6065V12.7008H13.0183H15.0799C15.383 12.7008 15.6736 12.8211 15.8879 13.0354C16.1022 13.2497 16.2226 13.5404 16.2226 13.8435C16.2226 14.1465 16.1022 14.4372 15.8879 14.6515C15.6736 14.8658 15.383 14.9861 15.0799 14.9861H13.0183H12.9241V15.0804V21.2288ZM20.2905 20.2909C18.1431 22.4383 15.2306 23.6447 12.1937 23.6447C9.15684 23.6447 6.24435 22.4383 4.09695 20.2909C1.94956 18.1436 0.743169 15.2311 0.743169 12.1942C0.743169 9.15732 1.94956 6.24483 4.09695 4.09744C6.24435 1.95005 9.15684 0.743657 12.1937 0.743657C15.2306 0.743657 18.1431 1.95005 20.2905 4.09744C22.4379 6.24483 23.6442 9.15732 23.6442 12.1942C23.6442 15.2311 22.4379 18.1436 20.2905 20.2909Z" fill="white" stroke="#F85883" stroke-width="0.188486"/></symbol>
	<symbol id="InstagramFooterIcon" viewBox="0 0 22 22" fill="none" xmlns="http://www.w3.org/2000/svg"><path d="M10.8094 2.70304C13.5938 2.70304 13.9235 2.71525 15.0186 2.76408C16.0363 2.80884 16.5858 2.97975 16.9522 3.12217C17.4366 3.30935 17.7867 3.53723 18.149 3.89939C18.5154 4.26561 18.7393 4.61149 18.9265 5.09573C19.069 5.46195 19.24 6.01536 19.2847 7.02859C19.3336 8.12727 19.3458 8.45688 19.3458 11.2361C19.3458 14.0195 19.3336 14.3491 19.2847 15.4437C19.24 16.461 19.069 17.0103 18.9265 17.3765C18.7393 17.8608 18.5113 18.2107 18.149 18.5729C17.7826 18.9391 17.4366 19.1629 16.9522 19.3501C16.5858 19.4925 16.0322 19.6634 15.0186 19.7082C13.9195 19.757 13.5897 19.7692 10.8094 19.7692C8.02496 19.7692 7.69523 19.757 6.60019 19.7082C5.5825 19.6634 5.03294 19.4925 4.66657 19.3501C4.18215 19.1629 3.83206 18.935 3.46976 18.5729C3.10339 18.2067 2.8795 17.8608 2.69224 17.3765C2.54977 17.0103 2.37879 16.4569 2.33402 15.4437C2.28517 14.345 2.27295 14.0154 2.27295 11.2361C2.27295 8.45281 2.28517 8.1232 2.33402 7.02859C2.37879 6.01129 2.54977 5.46195 2.69224 5.09573C2.8795 4.61149 3.10746 4.26154 3.46976 3.89939C3.83613 3.53316 4.18215 3.30935 4.66657 3.12217C5.03294 2.97975 5.58657 2.80884 6.60019 2.76408C7.69523 2.71525 8.02496 2.70304 10.8094 2.70304ZM10.8094 0.827148C7.98019 0.827148 7.62603 0.839356 6.51471 0.888186C5.40745 0.937017 4.64622 1.11606 3.98675 1.37242C3.29879 1.64099 2.71667 1.99501 2.13862 2.5769C1.5565 3.15472 1.20234 3.73662 0.933668 4.42024C0.677209 5.08352 0.498095 5.84039 0.449245 6.94721C0.400396 8.06216 0.388184 8.41618 0.388184 11.2443C0.388184 14.0724 0.400396 14.4264 0.449245 15.5373C0.498095 16.6441 0.677209 17.405 0.933668 18.0642C1.20234 18.7519 1.5565 19.3338 2.13862 19.9116C2.71667 20.4895 3.29879 20.8476 3.98268 21.1121C4.64622 21.3684 5.40338 21.5475 6.51063 21.5963C7.62196 21.6451 7.97611 21.6573 10.8053 21.6573C13.6345 21.6573 13.9887 21.6451 15.1 21.5963C16.2072 21.5475 16.9685 21.3684 17.6279 21.1121C18.3118 20.8476 18.8939 20.4895 19.472 19.9116C20.05 19.3338 20.4083 18.7519 20.6729 18.0683C20.9293 17.405 21.1084 16.6482 21.1573 15.5413C21.2061 14.4304 21.2184 14.0764 21.2184 11.2483C21.2184 8.42025 21.2061 8.06623 21.1573 6.95535C21.1084 5.84853 20.9293 5.08759 20.6729 4.42838C20.4164 3.73662 20.0623 3.15472 19.4801 2.5769C18.9021 1.99907 18.32 1.64099 17.6361 1.37649C16.9725 1.12013 16.2154 0.941086 15.1081 0.892255C13.9927 0.839356 13.6386 0.827148 10.8094 0.827148Z" fill="white"/><path d="M10.8094 5.89329C7.85399 5.89329 5.4563 8.29004 5.4563 11.2443C5.4563 14.1985 7.85399 16.5953 10.8094 16.5953C13.7648 16.5953 16.1624 14.1985 16.1624 11.2443C16.1624 8.29004 13.7648 5.89329 10.8094 5.89329ZM10.8094 14.7153C8.89204 14.7153 7.337 13.1609 7.337 11.2443C7.337 9.32768 8.89204 7.77325 10.8094 7.77325C12.7267 7.77325 14.2817 9.32768 14.2817 11.2443C14.2817 13.1609 12.7267 14.7153 10.8094 14.7153Z" fill="white"/><path d="M17.6239 5.6817C17.6239 6.37347 17.0621 6.93095 16.3741 6.93095C15.6821 6.93095 15.1244 6.3694 15.1244 5.6817C15.1244 4.98994 15.6862 4.43246 16.3741 4.43246C17.0621 4.43246 17.6239 4.99401 17.6239 5.6817Z" fill="white"/></symbol>
	<symbol id="LinkedinFooterIcon" viewBox="0 0 23 23" fill="none" xmlns="http://www.w3.org/2000/svg"><path d="M16.9096 12.4371V16.502H14.5533V12.7087C14.5533 11.7565 14.2125 11.1067 13.3593 11.1067C12.7084 11.1067 12.3203 11.5443 12.1498 11.9687C12.0883 12.1204 12.0718 12.3316 12.0718 12.5427V16.502H9.71443C9.71443 16.502 9.74632 10.0787 9.71443 9.41347H12.0718V10.4173L12.0564 10.4404H12.0718V10.4173C12.3851 9.93354 12.9437 9.24635 14.196 9.24635C15.7463 9.24635 16.9096 10.2601 16.9096 12.4371ZM7.24825 5.99512C6.44231 5.99512 5.91455 6.52508 5.91455 7.21996C5.91455 7.90166 6.42692 8.44591 7.21746 8.44591H7.23285C8.05528 8.44591 8.56655 7.90056 8.56655 7.21996C8.55116 6.52508 8.05528 5.99512 7.24825 5.99512ZM6.05419 16.502H8.41152V9.41347H6.05419V16.502Z" fill="white"/><path d="M4.815 2.39822C4.23179 2.39822 3.67247 2.6299 3.26007 3.0423C2.84768 3.45469 2.616 4.01402 2.616 4.59723V17.7913C2.616 18.3745 2.84768 18.9338 3.26007 19.3462C3.67247 19.7586 4.23179 19.9903 4.815 19.9903H18.009C18.5923 19.9903 19.1516 19.7586 19.564 19.3462C19.9764 18.9338 20.208 18.3745 20.208 17.7913V4.59723C20.208 4.01402 19.9764 3.45469 19.564 3.0423C19.1516 2.6299 18.5923 2.39822 18.009 2.39822H4.815ZM4.815 0.199219H18.009C19.1755 0.199219 20.2941 0.662579 21.1189 1.48737C21.9437 2.31215 22.4071 3.43081 22.4071 4.59723V17.7913C22.4071 18.9577 21.9437 20.0763 21.1189 20.9011C20.2941 21.7259 19.1755 22.1893 18.009 22.1893H4.815C3.64858 22.1893 2.52993 21.7259 1.70514 20.9011C0.880353 20.0763 0.416992 18.9577 0.416992 17.7913V4.59723C0.416992 3.43081 0.880353 2.31215 1.70514 1.48737C2.52993 0.662579 3.64858 0.199219 4.815 0.199219Z" fill="white"/></symbol>
	<symbol id="WhatsappFooterIcon" viewBox="0 0 22 22" fill="none" xmlns="http://www.w3.org/2000/svg"><path d="M10.8581 0.984375C16.4969 0.984375 21.0678 5.55524 21.0678 11.194C21.0678 16.8328 16.4969 21.4037 10.8581 21.4037C9.12039 21.4063 7.41101 20.9634 5.89316 20.1173L5.58176 19.9356L2.48619 20.8463C2.31773 20.8959 2.13939 20.9017 1.96806 20.8631C1.79674 20.8245 1.63811 20.7428 1.50722 20.6257C1.37633 20.5086 1.27751 20.36 1.22013 20.1941C1.16275 20.0281 1.14871 19.8502 1.17935 19.6773L1.20589 19.566L2.1166 16.4704C1.15378 14.879 0.645973 13.054 0.648446 11.194C0.648446 5.55524 5.21932 0.984375 10.8581 0.984375ZM10.8581 3.02631C9.39571 3.02604 7.96006 3.41842 6.70108 4.16246C5.4421 4.9065 4.40597 5.97491 3.7009 7.25612C2.99582 8.53733 2.64767 9.98434 2.69279 11.446C2.73791 12.9078 3.17465 14.3305 3.9574 15.5658C4.15955 15.8844 4.24633 16.2764 4.17793 16.6654L4.13811 16.8318L3.68787 18.3643L5.22034 17.9141C5.66242 17.7834 6.12185 17.863 6.48634 18.0948C7.55665 18.7725 8.76992 19.1919 10.0303 19.32C11.2906 19.448 12.5634 19.2811 13.7482 18.8325C14.9329 18.3839 15.9971 17.6658 16.8565 16.7351C17.7159 15.8044 18.3471 14.6865 18.7 13.4699C19.053 12.2532 19.1182 10.9711 18.8903 9.72498C18.6625 8.47882 18.1479 7.30273 17.3872 6.28971C16.6265 5.27668 15.6406 4.45447 14.5075 3.88809C13.3743 3.32171 12.1249 3.02667 10.8581 3.02631ZM7.89936 6.27707C8.01239 6.22812 8.13622 6.20944 8.25867 6.22287C8.38111 6.23629 8.49795 6.28136 8.5977 6.35364C9.11226 6.72936 9.52065 7.23371 9.87186 7.72582L10.2057 8.20976L10.3619 8.43948C10.4521 8.57126 10.4963 8.72905 10.4878 8.88849C10.4793 9.04792 10.4186 9.20012 10.315 9.32159L10.2384 9.39919L9.29502 10.0996C9.24961 10.1324 9.21766 10.1807 9.20509 10.2353C9.19251 10.2899 9.20016 10.3473 9.22661 10.3967C9.44102 10.7846 9.8198 11.3635 10.2547 11.7985C10.6907 12.2334 11.2961 12.6377 11.7106 12.8756C11.8005 12.9266 11.9087 12.9103 11.9822 12.8439L12.021 12.798L12.6346 11.8638C12.7472 11.7137 12.9136 11.6131 13.0988 11.583C13.284 11.553 13.4737 11.5958 13.628 11.7025L14.1824 12.0894C14.7337 12.4825 15.2636 12.9052 15.6832 13.4412C15.7612 13.5417 15.8108 13.6614 15.8268 13.7876C15.8428 13.9139 15.8246 14.0421 15.7741 14.1589C15.3698 15.1023 14.3457 15.9058 13.2819 15.867L13.1196 15.8568L12.9246 15.8384C12.8878 15.8341 12.851 15.8293 12.8143 15.8241L12.5713 15.7833C11.6279 15.6056 10.1159 15.0707 8.54869 13.5045C6.98253 11.9373 6.44754 10.4253 6.26989 9.48188L6.22905 9.23889L6.20353 9.02653L6.19026 8.84786C6.18864 8.82235 6.18728 8.79683 6.18617 8.77129C6.14738 7.7054 6.95496 6.68137 7.89936 6.27707Z" fill="white"/></symbol>
	<symbol id="PhoneFooterIcon" viewBox="0 0 18 18" fill="none" xmlns="http://www.w3.org/2000/svg"><path fill-rule="evenodd" clip-rule="evenodd" d="M5.81016 12.1909C9.01433 15.3951 11.9835 15.7459 12.8552 15.7784C13.9085 15.8167 14.9835 14.9567 15.4485 14.0759C14.7068 13.2059 13.741 12.5309 12.6835 11.7992C12.0593 12.4226 11.2902 13.5809 10.266 13.1659C9.6835 12.9317 8.24516 12.2692 6.9885 11.0117C5.731 9.75506 5.06933 8.31672 4.8335 7.73506C4.4185 6.70922 5.58016 5.93839 6.20433 5.31422C5.47266 4.23922 4.80933 3.24839 3.941 2.54422C3.04766 3.01089 2.18266 4.07756 2.22183 5.14506C2.25433 6.01672 2.60516 8.98589 5.81016 12.1909ZM12.7935 17.4442C11.5935 17.4001 8.19266 16.9301 4.631 13.3692C1.07016 9.80756 0.600996 6.40756 0.555996 5.20672C0.489329 3.37672 1.891 1.59922 3.51016 0.905058C3.70514 0.820863 3.91866 0.788808 4.12977 0.812037C4.34088 0.835266 4.54232 0.912982 4.71433 1.03756C6.05433 2.01506 6.9785 3.49589 7.77266 4.65589C7.93787 4.8971 8.01355 5.18848 7.98662 5.47959C7.95968 5.77071 7.83182 6.04325 7.62516 6.25006L6.49516 7.38089C6.75766 7.96006 7.29183 8.95839 8.16683 9.83339C9.04183 10.7084 10.0402 11.2426 10.6202 11.5051L11.7493 10.3751C11.9569 10.168 12.2306 10.0403 12.5227 10.0142C12.8148 9.98819 13.1067 10.0655 13.3477 10.2326C14.531 11.0526 15.921 11.9634 16.9343 13.2609C17.069 13.4341 17.1547 13.6404 17.1824 13.8581C17.2101 14.0758 17.1788 14.2969 17.0918 14.4984C16.3943 16.1259 14.6293 17.5117 12.7935 17.4442Z" fill="#F5F5F5"/></symbol>
	<symbol id="CloseIcon" viewBox="0 0 16 16" fill="none" xmlns="http://www.w3.org/2000/svg"><path d="M1 1L15 15" stroke="white" stroke-width="2" stroke-linecap="round" stroke-linejoin="round"/><path d="M15 1L1 15" stroke="white" stroke-width="2" stroke-linecap="round" stroke-linejoin="round"/></symbol>
	<symbol id="PinkCloseIcon" viewBox="0 0 16 16" fill="none" xmlns="http://www.w3.org/2000/svg"><path fill-rule="evenodd" clip-rule="evenodd" d="M15.7071 15.7071C15.3166 16.0976 14.6834 16.0976 14.2929 15.7071L8 9.41421L1.70711 15.7071C1.31658 16.0976 0.683417 16.0976 0.292893 15.7071C-0.0976314 15.3166 -0.0976313 14.6834 0.292894 14.2929L7.29289 7.29289C7.68342 6.90237 8.31658 6.90237 8.70711 7.29289L15.7071 14.2929C16.0976 14.6834 16.0976 15.3166 15.7071 15.7071Z" fill="#FF5CA3"/><path fill-rule="evenodd" clip-rule="evenodd" d="M0.292893 0.292893C0.683417 -0.0976312 1.31658 -0.0976313 1.70711 0.292893L8 6.58579L14.2929 0.292891C14.6834 -0.0976337 15.3166 -0.0976338 15.7071 0.29289C16.0976 0.683415 16.0976 1.31658 15.7071 1.7071L8.70711 8.70711C8.31658 9.09763 7.68342 9.09763 7.29289 8.70711L0.292894 1.70711C-0.0976309 1.31658 -0.097631 0.683418 0.292893 0.292893Z" fill="#FF5CA3"/></symbol>
	<symbol id="PinkArrowDown" viewBox="0 0 24 24" fill="none" xmlns="http://www.w3.org/2000/svg"><path d="M21.0008 20.0003V4.00547C21.0008 3.74034 20.8954 3.48607 20.7079 3.2986C20.5204 3.11112 20.266 3.0058 20.0008 3.0058C19.7356 3.0058 19.4812 3.11112 19.2937 3.2986C19.1061 3.48607 19.0008 3.74034 19.0008 4.00547V17.5911L4.71078 3.2957C4.61782 3.20201 4.50722 3.12763 4.38536 3.07688C4.2635 3.02613 4.13281 3 4.00079 3C3.86878 3 3.73807 3.02613 3.61621 3.07688C3.49435 3.12763 3.38375 3.20201 3.29079 3.2957C3.10454 3.48301 3 3.73638 3 4.00048C3 4.26458 3.10454 4.51795 3.29079 4.70525L17.5908 19.0006H4.00079C3.73558 19.0006 3.48122 19.106 3.29369 19.2934C3.10615 19.4809 3.00079 19.7352 3.00079 20.0003C3.00079 20.2655 3.10615 20.5197 3.29369 20.7072C3.48122 20.8947 3.73558 21 4.00079 21H20.0008C20.266 21 20.5204 20.8947 20.7079 20.7072C20.8954 20.5197 21.0008 20.2655 21.0008 20.0003Z" fill="#FF50A4"/></symbol>
	<symbol id="YellowArrowUp" viewBox="0 0 24 24" fill="none" xmlns="http://www.w3.org/2000/svg"><path d="M21.0008 3.99968L21.0008 19.9945C21.0008 20.2597 20.8954 20.5139 20.7079 20.7014C20.5204 20.8889 20.266 20.9942 20.0008 20.9942C19.7356 20.9942 19.4812 20.8889 19.2937 20.7014C19.1061 20.5139 19.0008 20.2597 19.0008 19.9945L19.0008 6.4089L4.71078 20.7043C4.61782 20.798 4.50722 20.8724 4.38536 20.9231C4.2635 20.9739 4.1328 21 4.00079 21C3.86878 21 3.73807 20.9739 3.61621 20.9231C3.49435 20.8724 3.38375 20.798 3.29079 20.7043C3.10453 20.517 3 20.2636 3 19.9995C3 19.7354 3.10453 19.4821 3.29079 19.2948L17.5908 4.99936L4.00079 4.99936C3.73558 4.99936 3.48122 4.89403 3.29369 4.70656C3.10615 4.51908 3.00079 4.26481 3.00079 3.99968C3.00079 3.73455 3.10615 3.48028 3.29369 3.2928C3.48122 3.10532 3.73558 3 4.00079 3L20.0008 3C20.266 3 20.5204 3.10532 20.7079 3.2928C20.8954 3.48028 21.0008 3.73455 21.0008 3.99968Z" fill="#FCFF73"/></symbol>
	<symbol id="CalendarIcon" viewBox="0 0 25 25" fill="none" xmlns="http://www.w3.org/2000/svg"><path opacity="0.5" d="M24.843 9.90844V17.1481C24.843 19.0681 24.0802 20.9095 22.7226 22.2672C21.3649 23.6249 19.5234 24.3877 17.6034 24.3877H7.95055C6.03049 24.3877 4.18907 23.6249 2.83138 22.2672C1.47368 20.9095 0.710938 19.0681 0.710938 17.1481V9.90844C0.71267 8.19883 1.31937 6.545 2.42357 5.23982C3.52778 3.93465 5.05825 3.06235 6.74395 2.77742V3.87543C6.74395 4.19544 6.87107 4.50234 7.09736 4.72862C7.32364 4.9549 7.63054 5.08203 7.95055 5.08203C8.27056 5.08203 8.57747 4.9549 8.80375 4.72862C9.03003 4.50234 9.15716 4.19544 9.15716 3.87543V2.66882H16.3968V3.87543C16.3968 4.19544 16.5239 4.50234 16.7502 4.72862C16.9765 4.9549 17.2834 5.08203 17.6034 5.08203C17.9234 5.08203 18.2303 4.9549 18.4566 4.72862C18.6829 4.50234 18.81 4.19544 18.81 3.87543V2.77742C20.4957 3.06235 22.0261 3.93465 23.1304 5.23982C24.2346 6.545 24.8413 8.19883 24.843 9.90844Z" fill="white"/><path fill-rule="evenodd" clip-rule="evenodd" d="M6.74609 12.3216C6.74609 11.6552 7.28631 11.115 7.9527 11.115H17.6055C18.2719 11.115 18.8121 11.6552 18.8121 12.3216C18.8121 12.988 18.2719 13.5282 17.6055 13.5282H7.9527C7.28631 13.5282 6.74609 12.988 6.74609 12.3216Z" fill="white"/><path fill-rule="evenodd" clip-rule="evenodd" d="M6.74609 17.148C6.74609 16.4816 7.28631 15.9414 7.9527 15.9414H13.9857C14.6521 15.9414 15.1923 16.4816 15.1923 17.148C15.1923 17.8144 14.6521 18.3546 13.9857 18.3546H7.9527C7.28631 18.3546 6.74609 17.8144 6.74609 17.148Z" fill="white"/><path d="M18.8077 1.46222V2.77742C18.4097 2.7043 18.0058 2.66795 17.6011 2.66882H16.3945V1.46222C16.3945 1.14221 16.5217 0.835303 16.7479 0.609021C16.9742 0.382739 17.2811 0.255615 17.6011 0.255615C17.9211 0.255615 18.2281 0.382739 18.4543 0.609021C18.6806 0.835303 18.8077 1.14221 18.8077 1.46222Z" fill="white"/><path d="M9.1593 1.46222V2.66882H7.9527C7.54802 2.66795 7.14411 2.7043 6.74609 2.77742V1.46222C6.74609 1.14221 6.87322 0.835303 7.0995 0.609021C7.32578 0.382739 7.63269 0.255615 7.9527 0.255615C8.27271 0.255615 8.57961 0.382739 8.80589 0.609021C9.03218 0.835303 9.1593 1.14221 9.1593 1.46222Z" fill="white"/></symbol>
	<symbol id="WhitePlusSquare" viewBox="0 0 26 26" fill="none" xmlns="http://www.w3.org/2000/svg"><path opacity="0.5" d="M25.2725 7.95125V17.8493C25.2725 19.8181 24.4904 21.7064 23.0982 23.0985C21.706 24.4907 19.8178 25.2728 17.8489 25.2728H7.95088C5.98204 25.2728 4.09383 24.4907 2.70165 23.0985C1.30946 21.7064 0.527344 19.8181 0.527344 17.8493V7.95125C0.527344 5.9824 1.30946 4.0942 2.70165 2.70201C4.09383 1.30983 5.98204 0.52771 7.95088 0.52771H17.8489C19.8178 0.52771 21.706 1.30983 23.0982 2.70201C24.4904 4.0942 25.2725 5.9824 25.2725 7.95125Z" fill="white"/><path d="M18.4673 12.9002C18.4673 13.2283 18.337 13.543 18.105 13.775C17.8729 14.0071 17.5582 14.1374 17.2301 14.1374H14.1369V17.2306C14.1369 17.5587 14.0066 17.8734 13.7746 18.1054C13.5425 18.3375 13.2278 18.4678 12.8997 18.4678C12.5715 18.4678 12.2568 18.3375 12.0248 18.1054C11.7928 17.8734 11.6624 17.5587 11.6624 17.2306V14.1374H8.56929C8.24115 14.1374 7.92645 14.0071 7.69442 13.775C7.46238 13.543 7.33203 13.2283 7.33203 12.9002C7.33203 12.572 7.46238 12.2573 7.69442 12.0253C7.92645 11.7933 8.24115 11.6629 8.56929 11.6629H11.6624V8.56978C11.6624 8.24163 11.7928 7.92693 12.0248 7.6949C12.2568 7.46287 12.5715 7.33252 12.8997 7.33252C13.2278 7.33252 13.5425 7.46287 13.7746 7.6949C14.0066 7.92693 14.1369 8.24163 14.1369 8.56978V11.6629H17.2301C17.5582 11.6629 17.8729 11.7933 18.105 12.0253C18.337 12.2573 18.4673 12.572 18.4673 12.9002Z" fill="white"/></symbol>
	<symbol id="MobilePhoneIcon" viewBox="0 0 18 26" fill="none" xmlns="http://www.w3.org/2000/svg"><path opacity="0.5" d="M12.7937 0.203613H5.155C2.34249 0.203613 0.0625 2.4836 0.0625 5.29611V20.5736C0.0625 23.3861 2.34249 25.6661 5.155 25.6661H12.7937C15.6063 25.6661 17.8862 23.3861 17.8862 20.5736V5.29611C17.8862 2.4836 15.6063 0.203613 12.7937 0.203613Z" fill="white"/><path d="M8.97625 20.561C8.6386 20.561 8.31477 20.4269 8.07601 20.1881C7.83726 19.9494 7.70312 19.6255 7.70312 19.2879C7.70312 18.9502 7.83726 18.6264 8.07601 18.3877C8.31477 18.1489 8.6386 18.0148 8.97625 18.0148C9.3139 18.0148 9.63773 18.1489 9.87649 18.3877C10.1152 18.6264 10.2494 18.9502 10.2494 19.2879C10.2494 19.6255 10.1152 19.9494 9.87649 20.1881C9.63773 20.4269 9.3139 20.561 8.97625 20.561Z" fill="white"/></symbol>
	<symbol id="ClipBoardIcon" viewBox="0 0 21 26" fill="none" xmlns="http://www.w3.org/2000/svg"><path opacity="0.5" d="M15.7309 3.1756L5.63165 3.17393C2.84282 3.17347 0.581658 5.43389 0.581197 8.22271L0.579112 20.8468C0.578651 23.6356 2.83907 25.8967 5.62789 25.8972L15.7271 25.8989C18.5159 25.8993 20.7771 23.6389 20.7776 20.8501L20.7797 8.22605C20.7801 5.43722 18.5197 3.17606 15.7309 3.1756Z" fill="white"/><path d="M13.2029 20.8488L6.89089 20.8478C6.55608 20.8477 6.23501 20.7147 5.9983 20.4779C5.76159 20.2411 5.62864 19.92 5.6287 19.5852C5.62875 19.2503 5.76181 18.9293 5.99859 18.6926C6.23538 18.4559 6.5565 18.3229 6.89131 18.323L13.2033 18.324C13.5381 18.3241 13.8592 18.4571 14.0959 18.6939C14.3326 18.9307 14.4656 19.2518 14.4655 19.5866C14.4655 19.9214 14.3324 20.2425 14.0956 20.4792C13.8588 20.7159 13.5377 20.8489 13.2029 20.8488Z" fill="white"/><path d="M14.4653 15.1682L6.89089 15.167C6.55608 15.1669 6.23501 15.0339 5.9983 14.7971C5.76159 14.5603 5.62864 14.2392 5.6287 13.9044C5.62875 13.5696 5.76181 13.2485 5.99859 13.0118C6.23538 12.7751 6.5565 12.6421 6.89131 12.6422L14.4657 12.6434C14.8005 12.6435 15.1216 12.7765 15.3583 13.0133C15.595 13.2501 15.728 13.5712 15.7279 13.906C15.7279 14.2409 15.5948 14.5619 15.358 14.7986C15.1212 15.0353 14.8001 15.1683 14.4653 15.1682Z" fill="white"/><path d="M13.2072 0.726105L8.15762 0.725271C6.76321 0.72504 5.63263 1.85525 5.6324 3.24966C5.63217 4.64407 6.76237 5.77466 8.15679 5.77489L13.2064 5.77572C14.6008 5.77595 15.7314 4.64574 15.7316 3.25133C15.7319 1.85692 14.6016 0.726335 13.2072 0.726105Z" fill="white"/></symbol>
	<symbol id="FileIcon" viewBox="0 0 25 25" fill="none" xmlns="http://www.w3.org/2000/svg"><path opacity="0.5" d="M24.2873 12.6503V16.8582C24.2873 18.7714 23.5273 20.6062 22.1745 21.959C20.8217 23.3118 18.9869 24.0718 17.0738 24.0718H7.45573C5.54258 24.0718 3.70779 23.3118 2.35499 21.959C1.00219 20.6062 0.242188 18.7714 0.242188 16.8582V7.24016C0.242188 5.327 1.00219 3.49221 2.35499 2.13941C3.70779 0.786608 5.54258 0.0266113 7.45573 0.0266113H11.6636C12.5405 0.0266113 13.3814 0.374943 14.0015 0.994977C14.6215 1.61501 14.9698 2.45596 14.9698 3.33282V5.43677C14.973 6.47208 15.3857 7.46409 16.1178 8.19617C16.8499 8.92825 17.8419 9.34093 18.8772 9.34411H20.9811C21.858 9.34411 22.6989 9.69244 23.319 10.3125C23.939 10.9325 24.2873 11.7735 24.2873 12.6503Z" fill="white"/><path d="M16.7719 3.33287C16.7763 2.31766 16.4747 1.32469 15.9062 0.483521C16.8741 0.843386 17.752 1.40952 18.4791 2.14264L22.17 5.83357C22.8977 6.55343 23.4597 7.42319 23.8171 8.38235C22.9781 7.81892 21.9905 7.51762 20.9798 7.51673H18.8758C18.3178 7.51673 17.7827 7.29506 17.3881 6.90049C16.9935 6.50593 16.7719 5.97078 16.7719 5.41278V3.33287Z" fill="white"/></symbol>
	<symbol id="ChatIcon" viewBox="0 0 24 24" fill="none" xmlns="http://www.w3.org/2000/svg"><path d="M14.3638 3.31495C13.1389 2.98222 11.8573 2.91216 10.6034 3.10937C9.34941 3.30658 8.15139 3.76659 7.08798 4.45921C6.02457 5.15182 5.11982 6.06136 4.43316 7.12811C3.7465 8.19485 3.29346 9.39466 3.10379 10.6487C2.83205 12.4111 3.09684 14.2143 3.86379 15.8244C4.07358 16.2526 4.12324 16.7416 4.00379 17.2032L3.67379 18.4921C3.60453 18.7454 3.60355 19.0125 3.67095 19.2663C3.73834 19.52 3.87171 19.7515 4.05753 19.9372C4.24334 20.1228 4.475 20.2561 4.72899 20.3234C4.98299 20.3907 5.25029 20.3898 5.50379 20.3206L6.80379 19.9909C7.26813 19.8777 7.75768 19.9344 8.18379 20.1507C9.34265 20.6935 10.604 20.983 11.8838 21C14.2599 21.0009 16.5425 20.0752 18.2458 18.42C19.9491 16.7647 20.9387 14.5107 21.0038 12.1375C21.0359 10.1387 20.4006 8.18617 19.1981 6.58844C17.9956 4.99072 16.2946 3.83889 14.3638 3.31495Z" stroke="#FCFF73" stroke-width="2" stroke-linecap="round" stroke-linejoin="round"/><path d="M8.00391 13.0051C8.55619 13.0051 9.00391 12.5574 9.00391 12.0051C9.00391 11.4528 8.55619 11.0051 8.00391 11.0051C7.45162 11.0051 7.00391 11.4528 7.00391 12.0051C7.00391 12.5574 7.45162 13.0051 8.00391 13.0051Z" fill="#FCFF73" stroke="#FCFF73" stroke-width="0.01" stroke-miterlimit="10" stroke-linecap="round"/><path d="M16.0039 13.0051C16.5562 13.0051 17.0039 12.5574 17.0039 12.0051C17.0039 11.4528 16.5562 11.0051 16.0039 11.0051C15.4516 11.0051 15.0039 11.4528 15.0039 12.0051C15.0039 12.5574 15.4516 13.0051 16.0039 13.0051Z" fill="#FCFF73" stroke="#FCFF73" stroke-width="0.01" stroke-miterlimit="10" stroke-linecap="round"/><path d="M12.0039 13.0051C12.5562 13.0051 13.0039 12.5574 13.0039 12.0051C13.0039 11.4528 12.5562 11.0051 12.0039 11.0051C11.4516 11.0051 11.0039 11.4528 11.0039 12.0051C11.0039 12.5574 11.4516 13.0051 12.0039 13.0051Z" fill="#FCFF73" stroke="#FCFF73" stroke-width="0.01" stroke-miterlimit="10" stroke-linecap="round"/></symbol>
	<symbol id="CalculatorIcon" viewBox="0 0 24 24" fill="none" xmlns="http://www.w3.org/2000/svg"><path opacity="0.5" d="M21 7V17C21 18.5913 20.3679 20.1174 19.2426 21.2426C18.1174 22.3679 16.5913 23 15 23H9C7.4087 23 5.88258 22.3679 4.75736 21.2426C3.63214 20.1174 3 18.5913 3 17V7C3 5.4087 3.63214 3.88258 4.75736 2.75736C5.88258 1.63214 7.4087 1 9 1H15C16.5913 1 18.1174 1.63214 19.2426 2.75736C20.3679 3.88258 21 5.4087 21 7Z" fill="#FF8461"/><path d="M8 15C8.55228 15 9 14.5523 9 14C9 13.4477 8.55228 13 8 13C7.44772 13 7 13.4477 7 14C7 14.5523 7.44772 15 8 15Z" fill="#FF8461"/><path d="M16 15C16.5523 15 17 14.5523 17 14C17 13.4477 16.5523 13 16 13C15.4477 13 15 13.4477 15 14C15 14.5523 15.4477 15 16 15Z" fill="#FF8461"/><path d="M12 15C12.5523 15 13 14.5523 13 14C13 13.4477 12.5523 13 12 13C11.4477 13 11 13.4477 11 14C11 14.5523 11.4477 15 12 15Z" fill="#FF8461"/><path d="M8 18.5C8.55228 18.5 9 18.0523 9 17.5C9 16.9477 8.55228 16.5 8 16.5C7.44772 16.5 7 16.9477 7 17.5C7 18.0523 7.44772 18.5 8 18.5Z" fill="#FF8461"/><path d="M16 18.5C16.5523 18.5 17 18.0523 17 17.5C17 16.9477 16.5523 16.5 16 16.5C15.4477 16.5 15 16.9477 15 17.5C15 18.0523 15.4477 18.5 16 18.5Z" fill="#FF8461"/><path d="M12 18.5C12.5523 18.5 13 18.0523 13 17.5C13 16.9477 12.5523 16.5 12 16.5C11.4477 16.5 11 16.9477 11 17.5C11 18.0523 11.4477 18.5 12 18.5Z" fill="#FF8461"/><path d="M17 7.5V8.5C17 9.16304 16.7366 9.79893 16.2678 10.2678C15.7989 10.7366 15.163 11 14.5 11H9.5C8.83696 11 8.20107 10.7366 7.73223 10.2678C7.26339 9.79893 7 9.16304 7 8.5V7.5C7.00263 6.83777 7.26687 6.20341 7.73514 5.73514C8.20341 5.26687 8.83777 5.00263 9.5 5H14.5C15.1622 5.00263 15.7966 5.26687 16.2649 5.73514C16.7331 6.20341 16.9974 6.83777 17 7.5Z" fill="#FF8461"/></symbol>
	<symbol id="GrayChatIcon" viewBox="0 0 24 24" fill="none" xmlns="http://www.w3.org/2000/svg"><path d="M14.3638 3.31495C13.1389 2.98222 11.8573 2.91216 10.6034 3.10937C9.34941 3.30658 8.15139 3.76659 7.08798 4.45921C6.02457 5.15182 5.11982 6.06136 4.43316 7.12811C3.7465 8.19485 3.29346 9.39466 3.10379 10.6487C2.83205 12.4111 3.09684 14.2143 3.86379 15.8244C4.07358 16.2526 4.12324 16.7416 4.00379 17.2032L3.67379 18.4921C3.60453 18.7454 3.60355 19.0125 3.67095 19.2663C3.73834 19.52 3.87171 19.7515 4.05753 19.9372C4.24334 20.1228 4.475 20.2561 4.72899 20.3234C4.98299 20.3907 5.25029 20.3898 5.50379 20.3206L6.80379 19.9909C7.26813 19.8777 7.75768 19.9344 8.18379 20.1507C9.34265 20.6935 10.604 20.983 11.8838 21C14.2599 21.0009 16.5425 20.0752 18.2458 18.42C19.9491 16.7647 20.9387 14.5107 21.0038 12.1375C21.0359 10.1387 20.4006 8.18617 19.1981 6.58844C17.9956 4.99072 16.2946 3.83889 14.3638 3.31495Z" stroke="#F5F5F5" stroke-width="2" stroke-linecap="round" stroke-linejoin="round"/><path d="M8.00391 13.0051C8.55619 13.0051 9.00391 12.5574 9.00391 12.0051C9.00391 11.4528 8.55619 11.0051 8.00391 11.0051C7.45162 11.0051 7.00391 11.4528 7.00391 12.0051C7.00391 12.5574 7.45162 13.0051 8.00391 13.0051Z" fill="#F5F5F5" stroke="#F5F5F5" stroke-width="0.01" stroke-miterlimit="10" stroke-linecap="round"/><path d="M16.0039 13.0051C16.5562 13.0051 17.0039 12.5574 17.0039 12.0051C17.0039 11.4528 16.5562 11.0051 16.0039 11.0051C15.4516 11.0051 15.0039 11.4528 15.0039 12.0051C15.0039 12.5574 15.4516 13.0051 16.0039 13.0051Z" fill="#F5F5F5" stroke="#F5F5F5" stroke-width="0.01" stroke-miterlimit="10" stroke-linecap="round"/><path d="M12.0039 13.0051C12.5562 13.0051 13.0039 12.5574 13.0039 12.0051C13.0039 11.4528 12.5562 11.0051 12.0039 11.0051C11.4516 11.0051 11.0039 11.4528 11.0039 12.0051C11.0039 12.5574 11.4516 13.0051 12.0039 13.0051Z" fill="#F5F5F5" stroke="#F5F5F5" stroke-width="0.01" stroke-miterlimit="10" stroke-linecap="round"/>
</symbol>

</svg>
