<svg width="162" height="53" viewBox="0 0 162 53" fill="none" xmlns="http://www.w3.org/2000/svg">
<g clip-path="url(#clip0_2558_1129)">
<path d="M20.8555 25.8304C18.7297 28.6493 15.2825 29.7999 11.2608 29.7999C4.7686 29.7999 0 26.003 0 19.9623C0 13.9217 4.99841 10.2398 11.4906 10.2398C15.0527 10.2398 17.1785 10.7575 19.9937 11.678V10.9301C19.7638 7.47832 17.6381 5.06206 13.1567 5.06206C10.399 5.06206 7.75616 5.57983 5.28568 6.78796C5.05587 6.90302 4.82605 6.96055 4.59624 6.96055C4.02171 6.96055 3.56209 6.55784 3.27482 5.86748L2.70029 4.42923C2.52793 4.08405 2.47048 3.7964 2.47048 3.50875C2.47048 2.93345 2.75775 2.53074 3.38973 2.12803C6.26238 0.459664 9.88192 -0.0581055 13.1567 -0.0581055C21.7172 -0.0581055 26.7731 4.83194 26.7731 11.6205V27.2686C26.7731 28.5343 26.1986 29.1096 24.9346 29.1096H22.5216C21.3725 29.1096 20.7405 28.5343 20.7405 27.3261V25.7728L20.8555 25.8304ZM19.9937 16.1078C17.6381 15.2449 15.9145 14.9572 13.3291 14.9572C9.82447 14.9572 6.83691 16.8557 6.83691 19.9623C6.83691 23.0689 9.65211 24.9099 12.9269 24.9099C17.0061 24.9099 19.9937 22.6662 19.9937 19.1569V16.1078Z" fill="white"/>
<path d="M51.8224 24.6224C50.0988 27.8441 46.8815 29.8001 42.2852 29.8001C35.4483 29.8001 31.3691 25.0251 31.3691 17.7188V2.5309C31.3691 1.26524 31.9437 0.689941 33.2076 0.689941H36.7123C37.9762 0.689941 38.5508 1.26524 38.5508 2.5309V16.6257C38.5508 20.9405 40.6765 23.6444 44.5259 23.6444C48.8923 23.6444 51.0181 20.7679 51.0181 16.6257V2.5309C51.0181 1.26524 51.5926 0.689941 52.8566 0.689941H56.3612C57.6252 0.689941 58.1997 1.26524 58.1997 2.5309V27.3263C58.1997 28.592 57.6252 29.1673 56.3612 29.1673H53.7184C52.4544 29.1673 51.8799 28.592 51.8799 27.3263V24.6799L51.8224 24.6224Z" fill="white"/>
<path d="M78.021 6.55827C78.021 6.55827 78.7104 5.98297 79.0551 5.40767C79.1126 5.29261 79.2275 5.17756 79.2849 5.00496C79.2849 4.94743 79.3998 4.83238 79.3998 4.77485C79.9744 3.85437 80.6638 3.04895 81.4107 2.24353C81.4107 2.24353 81.4681 2.186 81.5256 2.12847C82.5597 1.15046 82.3299 0.80528 81.5256 0.51763C80.8936 0.28751 79.9169 0.22998 79.1126 0.22998C74.4014 0.22998 71.2415 2.12847 69.6328 5.12002V2.47365C69.6328 1.20799 69.0583 0.63269 67.7943 0.63269H65.1515C63.8875 0.63269 63.313 1.20799 63.313 2.47365V27.269C63.313 28.5347 63.8875 29.11 65.1515 29.11H68.6561C69.9201 29.11 70.4946 28.5347 70.4946 27.269V13.1742C70.4946 9.26218 72.3906 6.44321 76.9868 6.44321C77.4464 6.44321 77.6762 6.44321 77.9061 6.50074" fill="white"/>
<path d="M111.516 14.9003C111.516 23.5873 104.852 29.8005 95.8317 29.8005C86.8115 29.8005 80.147 23.5873 80.147 14.9003C80.147 6.21323 86.8115 0 95.8317 0C104.852 0 111.516 6.21323 111.516 14.9003ZM104.45 14.9003C104.45 9.78009 100.83 6.04064 95.8317 6.04064C90.8332 6.04064 87.2137 9.78009 87.2137 14.9003C87.2137 20.0204 90.8332 23.7599 95.8317 23.7599C100.83 23.7599 104.45 20.0204 104.45 14.9003Z" fill="white"/>
<path d="M121.571 5.17715C123.179 2.1856 126.339 0.287109 131.05 0.287109C131.855 0.287109 132.831 0.287109 133.463 0.574759C134.153 0.862409 134.44 1.32265 134.44 1.89795C134.44 2.1856 134.44 2.47325 134.21 2.81843L133.119 5.57986C132.659 6.6154 132.487 6.73046 131.625 6.73046C130.878 6.73046 129.671 6.50034 128.925 6.50034C124.328 6.50034 122.432 9.26178 122.432 13.2313V27.3262C122.432 28.5918 121.858 29.1671 120.594 29.1671H117.089C115.825 29.1671 115.251 28.5918 115.251 27.3262V2.53078C115.251 1.26512 115.825 0.689819 117.089 0.689819H119.732C120.996 0.689819 121.571 1.26512 121.571 2.53078V5.17715Z" fill="white"/>
<path d="M155.123 25.8304C152.997 28.6493 149.55 29.7999 145.528 29.7999C139.036 29.7999 134.268 26.003 134.268 19.9623C134.268 13.9217 139.266 10.2398 145.758 10.2398C149.32 10.2398 151.446 10.7575 154.261 11.678V10.9301C154.031 7.47832 151.906 5.06206 147.424 5.06206C144.667 5.06206 142.024 5.57983 139.553 6.78796C139.323 6.90302 139.094 6.96055 138.864 6.96055C138.289 6.96055 137.83 6.55784 137.542 5.86748L136.968 4.42923C136.796 4.08405 136.738 3.7964 136.738 3.50875C136.738 2.93345 137.025 2.53074 137.657 2.12803C140.53 0.459664 144.149 -0.0581055 147.424 -0.0581055C155.985 -0.0581055 161.041 4.83194 161.041 11.6205V27.2686C161.041 28.5343 160.466 29.1096 159.202 29.1096H156.789C155.64 29.1096 155.008 28.5343 155.008 27.3261V25.7728L155.123 25.8304ZM154.261 16.1078C151.906 15.2449 150.182 14.9572 147.597 14.9572C144.092 14.9572 141.104 16.8557 141.104 19.9623C141.104 23.0689 143.92 24.9099 147.195 24.9099C151.274 24.9099 154.261 22.6662 154.261 19.1569V16.1078Z" fill="white"/>
<path d="M97.268 52.5248C96.004 52.5248 94.7975 52.2946 93.7634 51.8344C92.7292 51.3742 91.81 50.7413 91.178 49.8784L93.1888 47.8073C93.591 48.4401 94.1655 48.9004 94.7975 49.3031C95.487 49.7058 96.2913 49.8784 97.2105 49.8784C97.9 49.8784 98.4171 49.7633 98.8192 49.5907C99.2214 49.4181 99.3938 49.073 99.3938 48.6703C99.3938 48.3826 99.2789 48.1525 99.1065 47.9799C98.9341 47.8073 98.532 47.6347 97.9574 47.5197L95.7168 47.0594C94.223 46.7718 93.1888 46.3115 92.5569 45.6787C91.9249 45.0459 91.6376 44.2405 91.6376 43.2624C91.6376 42.5721 91.8674 41.8817 92.2696 41.3064C92.6718 40.6736 93.3037 40.2134 94.1655 39.8107C94.9699 39.4079 96.0615 39.2354 97.268 39.2354C98.4745 39.2354 99.6236 39.4079 100.6 39.8107C101.52 40.2134 102.266 40.7887 102.841 41.5941L100.773 43.6652C100.37 43.0899 99.9108 42.6296 99.2789 42.2844C98.6469 41.9968 98.0149 41.8242 97.3829 41.8242C96.9233 41.8242 96.5211 41.8242 96.1764 41.9968C95.8317 42.1118 95.6019 42.2269 95.4295 42.3995C95.2571 42.5721 95.1997 42.8022 95.1997 43.0899C95.1997 43.3775 95.3146 43.6076 95.5444 43.7802C95.7742 43.9528 96.2338 44.1254 96.8658 44.298L99.4512 44.8158C100.715 45.0459 101.634 45.5061 102.152 46.0814C102.669 46.7142 102.956 47.4046 102.956 48.2676C102.956 49.1305 102.726 49.8209 102.324 50.4537C101.864 51.0865 101.232 51.6043 100.428 51.9495C99.5661 52.2946 98.532 52.5248 97.3255 52.5248" fill="white"/>
<path d="M112.608 44.1258C112.608 43.3779 112.378 42.8026 111.976 42.3999C111.574 41.9972 110.999 41.7671 110.31 41.7671C109.678 41.7671 109.103 41.9397 108.644 42.2273C108.184 42.5725 107.839 43.0903 107.609 43.8381L104.622 42.9177C104.909 41.7671 105.541 40.9041 106.518 40.2138C107.494 39.5234 108.816 39.1782 110.482 39.1782C111.631 39.1782 112.608 39.3508 113.412 39.696C114.216 40.0412 114.906 40.5589 115.366 41.2493C115.825 41.9397 116.055 42.8026 116.055 43.8957V49.0734C116.055 49.7062 116.342 50.0514 116.974 50.0514C117.261 50.0514 117.549 50.0514 117.779 49.9363L117.549 52.1225C117.089 52.3526 116.572 52.4676 115.883 52.4676C115.308 52.4676 114.734 52.3526 114.274 52.18C113.814 51.9499 113.412 51.6622 113.125 51.2595C112.838 50.8568 112.723 50.339 112.723 49.7062V49.5911L113.355 49.4761C113.24 50.1089 112.953 50.6842 112.493 51.1445C112.033 51.6047 111.459 51.9499 110.827 52.18C110.195 52.4101 109.505 52.5252 108.816 52.5252C107.954 52.5252 107.207 52.4101 106.575 52.1225C105.943 51.8348 105.484 51.4896 105.139 50.9719C104.794 50.4541 104.622 49.8213 104.622 49.0734C104.622 48.0954 104.909 47.3475 105.541 46.7146C106.173 46.1393 107.035 45.6791 108.184 45.449L112.953 44.471V46.6571L109.85 47.2899C109.276 47.405 108.816 47.5776 108.529 47.7502C108.241 47.9228 108.069 48.268 108.069 48.7282C108.069 49.1884 108.241 49.4761 108.529 49.7062C108.816 49.9363 109.218 50.0514 109.678 50.0514C110.022 50.0514 110.367 50.0514 110.712 49.9363C111.057 49.8788 111.344 49.7062 111.631 49.5336C111.918 49.361 112.091 49.0734 112.263 48.7857C112.435 48.4405 112.493 48.0954 112.493 47.6351V44.1833L112.608 44.1258Z" fill="white"/>
<path d="M123.524 52.5239C122.662 52.5239 121.915 52.3514 121.226 52.0637C120.537 51.7761 120.019 51.2583 119.617 50.5679C119.215 49.8776 119.043 49.0146 119.043 47.9215V39.4646H122.547V47.1161C122.547 48.0941 122.777 48.7845 123.179 49.1872C123.582 49.5899 124.156 49.7625 124.96 49.7625C125.305 49.7625 125.65 49.705 125.995 49.5899C126.339 49.4749 126.627 49.2447 126.914 49.0146C127.201 48.727 127.373 48.3818 127.546 47.9791C127.718 47.5188 127.776 47.0586 127.776 46.4258V39.5797H131.28V52.3514H128.178L128.063 50.1077C127.661 50.9706 127.029 51.6035 126.339 52.0062C125.592 52.4089 124.731 52.5815 123.696 52.5815M125.305 33.5391H128.695L126.167 37.8538H123.582L125.363 33.5391H125.305Z" fill="white"/>
<path d="M138.921 52.5244C137.887 52.5244 136.911 52.2367 136.106 51.719C135.302 51.2012 134.612 50.4533 134.153 49.4178C133.693 48.4398 133.463 47.2316 133.463 45.8509C133.463 44.4702 133.693 43.2045 134.21 42.2265C134.727 41.2485 135.359 40.5006 136.221 39.9253C137.083 39.4076 138.002 39.1199 139.036 39.1199C140.185 39.1199 141.105 39.4651 141.794 40.0979C142.541 40.7307 143.001 41.5937 143.23 42.6292L142.886 43.0319V33.8271H146.39V52.1792H143.23L143.001 48.3247L143.403 48.5548C143.288 49.3602 143.058 50.0506 142.598 50.6259C142.196 51.2012 141.622 51.6614 140.99 52.0066C140.358 52.3518 139.611 52.4668 138.864 52.4668M139.898 49.7629C140.53 49.7629 141.047 49.5903 141.507 49.3027C141.966 49.015 142.311 48.4973 142.541 47.922C142.771 47.2892 142.886 46.5988 142.886 45.7358C142.886 44.8729 142.771 44.2401 142.541 43.6648C142.311 43.0895 141.966 42.6292 141.507 42.3416C141.047 42.0539 140.53 41.8813 139.956 41.8813C138.979 41.8813 138.232 42.2265 137.715 42.9169C137.198 43.6072 136.911 44.5852 136.911 45.8509C136.911 47.1166 137.198 48.1521 137.715 48.7849C138.232 49.4753 138.979 49.8205 139.898 49.8205" fill="white"/>
<path d="M155.296 52.5248C153.974 52.5248 152.768 52.2371 151.791 51.7193C150.814 51.2016 150.01 50.4537 149.493 49.4182C148.976 48.4401 148.688 47.232 148.688 45.8513C148.688 44.4706 148.976 43.2624 149.493 42.2844C150.01 41.3064 150.814 40.5585 151.791 40.0408C152.768 39.523 153.859 39.2354 155.123 39.2354C156.387 39.2354 157.536 39.523 158.398 40.0408C159.317 40.5585 160.007 41.2489 160.466 42.1694C160.926 43.0899 161.156 44.0679 161.156 45.2185C161.156 45.5636 161.156 45.9088 161.156 46.1965C161.156 46.4841 161.156 46.7718 161.098 47.0019H150.929V44.5856H159.547L157.881 45.2185C157.881 44.1254 157.651 43.32 157.134 42.7447C156.674 42.1694 155.985 41.8817 155.066 41.8817C154.434 41.8817 153.859 42.0543 153.4 42.342C152.94 42.6296 152.595 43.0899 152.365 43.7227C152.136 44.3555 152.021 45.1034 152.021 46.0239C152.021 46.9444 152.136 47.6923 152.423 48.2676C152.71 48.8429 153.055 49.3031 153.572 49.5907C154.032 49.8784 154.664 50.051 155.296 50.051C156.042 50.051 156.674 49.8784 157.134 49.5907C157.594 49.3031 157.938 48.9004 158.226 48.3826L160.983 49.4757C160.696 50.166 160.294 50.6838 159.719 51.2016C159.145 51.6618 158.513 52.0645 157.766 52.2946C157.019 52.5248 156.215 52.6398 155.353 52.6398" fill="white"/>
</g>
<defs>
<clipPath id="clip0_2558_1129">
<rect width="161.156" height="52.5248" fill="white"/>
</clipPath>
</defs>
</svg>
