<svg width="27" height="27" viewBox="0 0 27 27" fill="none" xmlns="http://www.w3.org/2000/svg">
<path d="M13.9241 22.2288V22.332L14.0269 22.3227C16.3395 22.1117 18.4858 21.0308 20.0321 19.2982C21.5784 17.5657 22.4094 15.3108 22.3571 12.9892C22.3049 10.6676 21.3733 8.45237 19.7506 6.79117C18.128 5.12997 15.9352 4.14666 13.6155 4.03996C11.2957 3.93325 9.02194 4.71109 7.25362 6.21631C5.4853 7.72152 4.35428 9.84187 4.08911 12.1489C3.82395 14.4559 4.44442 16.7776 5.82513 18.6447C7.20584 20.5119 9.24384 21.7853 11.5273 22.2077L11.6387 22.2283V22.115V16.0804V15.9861H11.5445H9.48288C9.17982 15.9861 8.88917 15.8658 8.67488 15.6515C8.46058 15.4372 8.34019 15.1465 8.34019 14.8435C8.34019 14.5404 8.46058 14.2497 8.67488 14.0354C8.88917 13.8211 9.17982 13.7008 9.48288 13.7008H11.5445H11.6387V13.6065V11.9408C11.6387 10.5015 12.0649 9.39951 12.8021 8.65583C13.5393 7.91226 14.6032 7.51605 15.9051 7.51605C16.3462 7.51605 16.8886 7.58071 17.4245 7.85641C17.6863 7.99894 17.882 8.23814 17.97 8.52299C18.058 8.80817 18.0309 9.11647 17.8946 9.38197C17.7583 9.64747 17.5235 9.84909 17.2404 9.94373C16.9574 10.0384 16.6485 10.0185 16.3799 9.88839L16.38 9.88833L16.3767 9.8869C16.2275 9.82145 16.065 9.79217 15.9023 9.80145C15.0718 9.80198 14.644 10.0454 14.425 10.2661C14.2055 10.4856 13.9241 10.9571 13.9241 11.9408V13.6065V13.7008H14.0183H16.0799C16.383 13.7008 16.6736 13.8211 16.8879 14.0354C17.1022 14.2497 17.2226 14.5404 17.2226 14.8435C17.2226 15.1465 17.1022 15.4372 16.8879 15.6515C16.6736 15.8658 16.383 15.9861 16.0799 15.9861H14.0183H13.9241V16.0804V22.2288ZM21.2905 21.2909C19.1431 23.4383 16.2306 24.6447 13.1937 24.6447C10.1568 24.6447 7.24435 23.4383 5.09695 21.2909C2.94956 19.1436 1.74317 16.2311 1.74317 13.1942C1.74317 10.1573 2.94956 7.24483 5.09695 5.09744C7.24435 2.95005 10.1568 1.74366 13.1937 1.74366C16.2306 1.74366 19.1431 2.95005 21.2905 5.09744C23.4379 7.24483 24.6442 10.1573 24.6442 13.1942C24.6442 16.2311 23.4379 19.1436 21.2905 21.2909Z" fill="white" stroke="#F85883" stroke-width="0.188486"/>
</svg>
