<svg width="22" height="22" viewBox="0 0 22 22" fill="none" xmlns="http://www.w3.org/2000/svg">
<path d="M10.8094 2.70304C13.5938 2.70304 13.9235 2.71525 15.0186 2.76408C16.0363 2.80884 16.5858 2.97975 16.9522 3.12217C17.4366 3.30935 17.7867 3.53723 18.149 3.89939C18.5154 4.26561 18.7393 4.61149 18.9265 5.09573C19.069 5.46195 19.24 6.01536 19.2847 7.02859C19.3336 8.12727 19.3458 8.45688 19.3458 11.2361C19.3458 14.0195 19.3336 14.3491 19.2847 15.4437C19.24 16.461 19.069 17.0103 18.9265 17.3765C18.7393 17.8608 18.5113 18.2107 18.149 18.5729C17.7826 18.9391 17.4366 19.1629 16.9522 19.3501C16.5858 19.4925 16.0322 19.6634 15.0186 19.7082C13.9195 19.757 13.5897 19.7692 10.8094 19.7692C8.02496 19.7692 7.69523 19.757 6.60019 19.7082C5.5825 19.6634 5.03294 19.4925 4.66657 19.3501C4.18215 19.1629 3.83206 18.935 3.46976 18.5729C3.10339 18.2067 2.8795 17.8608 2.69224 17.3765C2.54977 17.0103 2.37879 16.4569 2.33402 15.4437C2.28517 14.345 2.27295 14.0154 2.27295 11.2361C2.27295 8.45281 2.28517 8.1232 2.33402 7.02859C2.37879 6.01129 2.54977 5.46195 2.69224 5.09573C2.8795 4.61149 3.10746 4.26154 3.46976 3.89939C3.83613 3.53316 4.18215 3.30935 4.66657 3.12217C5.03294 2.97975 5.58657 2.80884 6.60019 2.76408C7.69523 2.71525 8.02496 2.70304 10.8094 2.70304ZM10.8094 0.827148C7.98019 0.827148 7.62603 0.839356 6.51471 0.888186C5.40745 0.937017 4.64622 1.11606 3.98675 1.37242C3.29879 1.64099 2.71667 1.99501 2.13862 2.5769C1.5565 3.15472 1.20234 3.73662 0.933668 4.42024C0.677209 5.08352 0.498095 5.84039 0.449245 6.94721C0.400396 8.06216 0.388184 8.41618 0.388184 11.2443C0.388184 14.0724 0.400396 14.4264 0.449245 15.5373C0.498095 16.6441 0.677209 17.405 0.933668 18.0642C1.20234 18.7519 1.5565 19.3338 2.13862 19.9116C2.71667 20.4895 3.29879 20.8476 3.98268 21.1121C4.64622 21.3684 5.40338 21.5475 6.51063 21.5963C7.62196 21.6451 7.97611 21.6573 10.8053 21.6573C13.6345 21.6573 13.9887 21.6451 15.1 21.5963C16.2072 21.5475 16.9685 21.3684 17.6279 21.1121C18.3118 20.8476 18.8939 20.4895 19.472 19.9116C20.05 19.3338 20.4083 18.7519 20.6729 18.0683C20.9293 17.405 21.1084 16.6482 21.1573 15.5413C21.2061 14.4304 21.2184 14.0764 21.2184 11.2483C21.2184 8.42025 21.2061 8.06623 21.1573 6.95535C21.1084 5.84853 20.9293 5.08759 20.6729 4.42838C20.4164 3.73662 20.0623 3.15472 19.4801 2.5769C18.9021 1.99907 18.32 1.64099 17.6361 1.37649C16.9725 1.12013 16.2154 0.941086 15.1081 0.892255C13.9927 0.839356 13.6386 0.827148 10.8094 0.827148Z" fill="white"/>
<path d="M10.8094 5.89329C7.85399 5.89329 5.4563 8.29004 5.4563 11.2443C5.4563 14.1985 7.85399 16.5953 10.8094 16.5953C13.7648 16.5953 16.1624 14.1985 16.1624 11.2443C16.1624 8.29004 13.7648 5.89329 10.8094 5.89329ZM10.8094 14.7153C8.89204 14.7153 7.337 13.1609 7.337 11.2443C7.337 9.32768 8.89204 7.77325 10.8094 7.77325C12.7267 7.77325 14.2817 9.32768 14.2817 11.2443C14.2817 13.1609 12.7267 14.7153 10.8094 14.7153Z" fill="white"/>
<path d="M17.6239 5.6817C17.6239 6.37347 17.0621 6.93095 16.3741 6.93095C15.6821 6.93095 15.1244 6.3694 15.1244 5.6817C15.1244 4.98994 15.6862 4.43246 16.3741 4.43246C17.0621 4.43246 17.6239 4.99401 17.6239 5.6817Z" fill="white"/>
</svg>
