<svg width="23" height="23" viewBox="0 0 23 23" fill="none" xmlns="http://www.w3.org/2000/svg">
<path d="M16.9096 12.4366V16.5015H14.5533V12.7082C14.5533 11.756 14.2125 11.1062 13.3593 11.1062C12.7084 11.1062 12.3203 11.5438 12.1498 11.9682C12.0883 12.12 12.0718 12.3311 12.0718 12.5422V16.5015H9.71443C9.71443 16.5015 9.74632 10.0782 9.71443 9.41298H12.0718V10.4168L12.0564 10.4399H12.0718V10.4168C12.3851 9.93305 12.9437 9.24586 14.196 9.24586C15.7463 9.24586 16.9096 10.2596 16.9096 12.4366ZM7.24825 5.99463C6.44231 5.99463 5.91455 6.52459 5.91455 7.21948C5.91455 7.90117 6.42692 8.44542 7.21746 8.44542H7.23285C8.05528 8.44542 8.56655 7.90007 8.56655 7.21948C8.55116 6.52459 8.05528 5.99463 7.24825 5.99463ZM6.05419 16.5015H8.41152V9.41298H6.05419V16.5015Z" fill="white"/>
<path d="M4.815 2.39774C4.23179 2.39774 3.67247 2.62942 3.26007 3.04181C2.84768 3.4542 2.616 4.01353 2.616 4.59674V17.7908C2.616 18.374 2.84768 18.9333 3.26007 19.3457C3.67247 19.7581 4.23179 19.9898 4.815 19.9898H18.009C18.5923 19.9898 19.1516 19.7581 19.564 19.3457C19.9764 18.9333 20.208 18.374 20.208 17.7908V4.59674C20.208 4.01353 19.9764 3.4542 19.564 3.04181C19.1516 2.62942 18.5923 2.39774 18.009 2.39774H4.815ZM4.815 0.19873H18.009C19.1755 0.19873 20.2941 0.662091 21.1189 1.48688C21.9437 2.31167 22.4071 3.43032 22.4071 4.59674V17.7908C22.4071 18.9572 21.9437 20.0759 21.1189 20.9006C20.2941 21.7254 19.1755 22.1888 18.009 22.1888H4.815C3.64858 22.1888 2.52993 21.7254 1.70514 20.9006C0.880353 20.0759 0.416992 18.9572 0.416992 17.7908V4.59674C0.416992 3.43032 0.880353 2.31167 1.70514 1.48688C2.52993 0.662091 3.64858 0.19873 4.815 0.19873Z" fill="white"/>
</svg>
