<svg width="22" height="22" viewBox="0 0 22 22" fill="none" xmlns="http://www.w3.org/2000/svg">
<path d="M10.8581 0.983887C16.4969 0.983887 21.0678 5.55476 21.0678 11.1936C21.0678 16.8324 16.4969 21.4032 10.8581 21.4032C9.12039 21.4058 7.41101 20.9629 5.89316 20.1168L5.58176 19.9351L2.48619 20.8458C2.31773 20.8954 2.13939 20.9012 1.96806 20.8626C1.79674 20.824 1.63811 20.7423 1.50722 20.6252C1.37633 20.5081 1.27751 20.3595 1.22013 20.1936C1.16275 20.0276 1.14871 19.8497 1.17935 19.6768L1.20589 19.5655L2.1166 16.4699C1.15378 14.8785 0.645973 13.0535 0.648446 11.1936C0.648446 5.55476 5.21932 0.983887 10.8581 0.983887ZM10.8581 3.02582C9.39571 3.02556 7.96006 3.41793 6.70108 4.16197C5.4421 4.90601 4.40597 5.97442 3.7009 7.25563C2.99582 8.53684 2.64767 9.98385 2.69279 11.4456C2.73791 12.9073 3.17465 14.3301 3.9574 15.5653C4.15955 15.8839 4.24633 16.2759 4.17793 16.6649L4.13811 16.8313L3.68787 18.3638L5.22034 17.9136C5.66242 17.7829 6.12185 17.8625 6.48634 18.0943C7.55665 18.772 8.76992 19.1914 10.0303 19.3195C11.2906 19.4475 12.5634 19.2806 13.7482 18.832C14.9329 18.3834 15.9971 17.6654 16.8565 16.7346C17.7159 15.8039 18.3471 14.6861 18.7 13.4694C19.053 12.2527 19.1182 10.9707 18.8903 9.72449C18.6625 8.47833 18.1479 7.30225 17.3872 6.28922C16.6265 5.27619 15.6406 4.45398 14.5075 3.8876C13.3743 3.32122 12.1249 3.02618 10.8581 3.02582ZM7.89936 6.27658C8.01239 6.22763 8.13622 6.20895 8.25867 6.22238C8.38111 6.2358 8.49795 6.28087 8.5977 6.35315C9.11226 6.72887 9.52065 7.23323 9.87186 7.72533L10.2057 8.20927L10.3619 8.43899C10.4521 8.57077 10.4963 8.72857 10.4878 8.888C10.4793 9.04743 10.4186 9.19963 10.315 9.32111L10.2384 9.3987L9.29502 10.0991C9.24961 10.132 9.21766 10.1802 9.20509 10.2348C9.19251 10.2894 9.20016 10.3468 9.22661 10.3962C9.44102 10.7842 9.8198 11.363 10.2547 11.798C10.6907 12.2329 11.2961 12.6372 11.7106 12.8751C11.8005 12.9261 11.9087 12.9098 11.9822 12.8434L12.021 12.7975L12.6346 11.8633C12.7472 11.7133 12.9136 11.6126 13.0988 11.5826C13.284 11.5525 13.4737 11.5953 13.628 11.702L14.1824 12.0889C14.7337 12.482 15.2636 12.9047 15.6832 13.4407C15.7612 13.5412 15.8108 13.6609 15.8268 13.7871C15.8428 13.9134 15.8246 14.0416 15.7741 14.1584C15.3698 15.1018 14.3457 15.9053 13.2819 15.8665L13.1196 15.8563L12.9246 15.8379C12.8878 15.8336 12.851 15.8288 12.8143 15.8236L12.5713 15.7828C11.6279 15.6052 10.1159 15.0702 8.54869 13.504C6.98253 11.9368 6.44754 10.4248 6.26989 9.4814L6.22905 9.23841L6.20353 9.02604L6.19026 8.84738C6.18864 8.82187 6.18728 8.79634 6.18617 8.7708C6.14738 7.70491 6.95496 6.68088 7.89936 6.27658Z" fill="white"/>
</svg>
